<?xml version="1.0" standalone="no"?>
<!DOCTYPE svg PUBLIC "-//W3C//DTD SVG 20010904//EN"
 "http://www.w3.org/TR/2001/REC-SVG-20010904/DTD/svg10.dtd">
<svg version="1.0" xmlns="http://www.w3.org/2000/svg"
 width="2992.000000pt" height="2584.000000pt" viewBox="0 0 2992.000000 2584.000000"
 preserveAspectRatio="xMidYMid meet">
<rect width="2992.000000" height="2584.000000" fill="#1B3328"/>
<metadata>
Created by potrace 1.16, written by Peter Selinger 2001-2019
</metadata>
<g transform="translate(0.000000,2584.000000) scale(0.100000,-0.100000)"
fill="#EBE4CA" stroke="none">
<path d="M0 12920 l0 -12920 14960 0 14960 0 0 12920 0 12920 -14960 0 -14960
0 0 -12920z m15800 11902 c74 -12 194 -26 265 -32 72 -6 166 -19 210 -30 44
-11 121 -24 170 -30 50 -6 133 -22 185 -35 52 -13 122 -26 155 -30 33 -4 79
-15 103 -25 23 -11 83 -26 133 -35 50 -8 100 -20 110 -26 11 -5 59 -19 107
-29 48 -11 108 -28 132 -39 25 -11 74 -25 110 -31 35 -6 77 -18 94 -27 16 -8
60 -24 98 -34 38 -11 79 -26 91 -33 12 -8 49 -21 81 -31 32 -9 68 -22 80 -30
12 -7 45 -20 74 -29 30 -8 68 -24 85 -35 18 -10 48 -22 67 -26 19 -4 61 -20
92 -36 32 -16 64 -29 71 -29 8 0 26 -9 40 -21 15 -11 48 -27 74 -36 26 -9 62
-27 81 -40 19 -12 40 -23 46 -23 6 0 25 -8 41 -17 88 -48 160 -86 252 -132 56
-29 105 -57 109 -63 4 -5 30 -21 58 -35 78 -38 134 -69 169 -95 18 -13 43 -29
57 -36 14 -7 48 -27 76 -45 28 -18 65 -41 84 -52 18 -11 54 -35 81 -52 27 -18
53 -33 58 -33 6 0 16 -8 23 -19 7 -10 27 -25 43 -33 17 -9 57 -35 90 -57 33
-23 78 -54 100 -68 22 -14 66 -47 97 -72 60 -48 90 -70 198 -148 36 -26 94
-71 130 -101 36 -29 80 -66 98 -80 118 -97 332 -296 542 -505 226 -224 332
-339 435 -471 33 -43 69 -87 79 -99 11 -11 42 -50 70 -86 27 -37 73 -93 101
-126 28 -33 57 -70 65 -81 8 -12 35 -48 60 -80 25 -32 52 -68 60 -80 47 -66
98 -140 115 -168 11 -18 30 -46 43 -62 21 -26 48 -68 180 -274 19 -30 43 -66
52 -80 10 -14 28 -45 41 -68 13 -24 38 -69 56 -100 18 -31 43 -80 57 -107 13
-28 31 -57 39 -64 9 -7 21 -29 28 -49 7 -20 20 -47 30 -60 10 -13 23 -40 30
-60 6 -20 22 -51 35 -69 13 -17 24 -35 24 -39 0 -4 32 -73 71 -153 94 -194
116 -241 124 -271 4 -14 17 -38 27 -53 11 -16 26 -52 34 -80 8 -29 25 -74 39
-101 14 -27 25 -56 25 -63 0 -8 11 -35 24 -61 13 -26 26 -65 30 -87 4 -22 18
-60 30 -85 13 -25 28 -67 35 -95 7 -27 23 -78 37 -112 13 -34 24 -71 24 -83 0
-13 11 -48 24 -79 24 -56 63 -182 92 -296 8 -33 26 -89 38 -125 13 -36 26 -85
30 -111 4 -25 15 -74 26 -110 11 -35 27 -108 36 -163 9 -54 22 -117 30 -139 8
-22 23 -112 34 -201 11 -89 24 -177 30 -196 11 -41 44 -381 66 -695 12 -167
14 -316 11 -615 -4 -269 -10 -434 -21 -517 -8 -67 -22 -207 -31 -310 -9 -103
-22 -215 -30 -248 -8 -33 -19 -114 -26 -180 -6 -66 -21 -160 -34 -210 -13 -49
-29 -128 -35 -175 -6 -46 -18 -96 -25 -110 -7 -14 -20 -66 -29 -116 -8 -49
-24 -110 -35 -134 -10 -25 -22 -65 -26 -90 -6 -42 -40 -158 -86 -295 -11 -33
-31 -96 -44 -140 -37 -125 -65 -206 -86 -250 -11 -22 -30 -71 -43 -110 -46
-134 -64 -180 -90 -229 -14 -27 -26 -56 -26 -65 0 -9 -11 -35 -24 -58 -13 -23
-30 -59 -36 -80 -7 -21 -24 -54 -36 -73 -13 -19 -24 -39 -24 -45 0 -14 -147
-305 -164 -324 -7 -9 -19 -33 -25 -53 -7 -21 -17 -40 -22 -44 -5 -3 -24 -33
-42 -66 -17 -33 -43 -79 -57 -103 -14 -24 -36 -63 -49 -86 -13 -24 -34 -58
-47 -75 -13 -17 -24 -34 -24 -39 0 -11 -87 -140 -105 -155 -8 -7 -15 -18 -15
-25 0 -7 -18 -37 -39 -66 -22 -30 -50 -69 -63 -87 -114 -163 -239 -281 -322
-303 -23 -6 -61 -18 -85 -25 -57 -18 -139 -18 -193 0 -24 8 -63 20 -88 26 -25
7 -54 20 -65 30 -11 10 -34 25 -51 33 -29 15 -68 55 -123 128 -29 37 -50 109
-58 199 -11 126 33 246 143 390 19 25 42 58 52 73 31 52 74 121 110 177 19 30
45 71 57 90 12 19 38 60 57 90 52 81 118 196 163 285 14 28 32 61 40 75 8 14
20 39 28 55 8 17 21 44 30 60 9 17 32 66 52 110 20 44 51 109 67 145 64 136
78 167 104 230 14 36 34 88 44 117 10 28 25 62 34 75 8 12 20 46 27 73 6 28
20 66 30 86 9 19 25 63 33 97 9 34 25 76 35 94 11 18 22 53 26 78 4 25 18 70
31 101 13 31 27 83 33 115 5 33 18 79 29 104 11 25 25 79 31 122 6 42 20 99
31 127 11 28 24 92 30 143 6 50 19 127 30 172 11 44 27 144 35 221 8 77 22
169 30 205 24 111 38 409 39 835 1 440 -13 718 -44 875 -10 52 -24 151 -30
220 -7 69 -20 159 -30 200 -10 41 -24 118 -30 170 -6 52 -20 122 -30 155 -11
33 -25 96 -31 139 -6 43 -19 101 -29 127 -11 26 -24 78 -31 116 -6 37 -20 88
-30 113 -10 25 -26 78 -34 118 -8 40 -23 89 -34 110 -10 20 -21 55 -25 77 -4
22 -18 63 -31 90 -13 28 -26 68 -31 89 -4 22 -20 64 -35 94 -16 30 -29 63 -29
75 0 11 -11 39 -24 61 -13 23 -31 66 -40 97 -9 31 -22 62 -30 68 -8 7 -18 27
-21 44 -4 18 -19 55 -35 82 -15 28 -30 64 -34 81 -4 17 -18 46 -32 65 -13 18
-24 38 -24 43 0 11 -130 270 -187 373 -17 32 -44 81 -60 109 -65 118 -96 172
-126 220 -18 28 -41 65 -52 84 -11 18 -30 45 -42 60 -13 15 -23 32 -23 38 0 6
-15 28 -32 50 -18 22 -41 53 -50 68 -42 68 -156 234 -203 295 -16 21 -43 56
-58 76 -72 98 -112 147 -242 300 -77 90 -151 179 -165 197 -14 17 -45 54 -70
81 -62 67 -326 329 -391 389 -114 105 -215 193 -231 202 -9 5 -40 30 -70 57
-89 79 -207 176 -231 188 -12 7 -50 36 -85 66 -35 29 -67 53 -72 53 -7 0 -41
25 -126 94 -18 15 -35 26 -40 26 -7 0 -134 82 -234 150 -14 10 -45 27 -68 39
-23 12 -42 26 -42 31 0 5 -21 20 -47 33 -96 49 -147 77 -162 91 -9 8 -36 24
-61 36 -25 12 -72 37 -105 55 -33 19 -76 41 -95 50 -19 8 -46 22 -60 30 -14 8
-41 21 -60 30 -19 8 -64 29 -100 46 -36 18 -87 42 -115 54 -27 13 -84 39 -125
58 -42 20 -89 39 -105 43 -17 4 -50 17 -75 30 -25 13 -52 24 -61 24 -8 0 -38
11 -65 25 -27 14 -76 32 -109 41 -32 9 -73 23 -90 32 -16 8 -52 21 -80 28 -27
7 -72 21 -100 33 -27 11 -77 26 -110 35 -33 8 -87 23 -120 34 -33 11 -87 26
-120 35 -33 8 -85 22 -115 30 -30 8 -91 22 -135 31 -44 9 -107 22 -140 30 -33
8 -100 22 -150 29 -49 8 -108 20 -130 26 -22 6 -125 20 -230 31 -104 11 -215
25 -245 30 -30 5 -192 15 -360 21 -238 10 -370 10 -600 0 -162 -7 -315 -16
-340 -21 -25 -4 -110 -15 -190 -24 -80 -9 -170 -19 -200 -22 -30 -3 -70 -12
-88 -20 -18 -7 -87 -20 -152 -29 -65 -9 -137 -22 -160 -30 -22 -8 -77 -21
-122 -30 -45 -8 -117 -26 -160 -40 -44 -14 -89 -25 -102 -25 -13 0 -61 -13
-107 -29 -46 -16 -104 -32 -129 -36 -25 -4 -58 -14 -73 -22 -32 -16 -167 -63
-277 -97 -41 -12 -86 -29 -100 -38 -14 -9 -45 -22 -70 -28 -25 -7 -58 -20 -75
-30 -16 -10 -46 -21 -65 -25 -19 -4 -54 -17 -77 -30 -23 -13 -59 -29 -80 -36
-21 -7 -58 -23 -82 -36 -24 -12 -52 -23 -61 -23 -10 0 -32 -10 -51 -23 -38
-25 -201 -107 -213 -107 -4 0 -21 -10 -38 -21 -16 -12 -73 -44 -125 -71 -53
-27 -107 -58 -121 -68 -13 -11 -30 -20 -37 -20 -7 0 -29 -13 -50 -30 -21 -16
-42 -30 -47 -30 -4 0 -30 -15 -57 -32 -27 -18 -63 -42 -82 -53 -40 -24 -50
-30 -115 -72 -28 -18 -55 -33 -60 -33 -4 0 -17 -9 -29 -20 -21 -22 -72 -59
-119 -87 -15 -10 -46 -31 -67 -48 -21 -16 -57 -43 -79 -60 -22 -16 -58 -44
-80 -62 -22 -17 -49 -35 -60 -38 -11 -4 -20 -10 -20 -14 0 -5 -26 -28 -57 -52
-51 -39 -118 -94 -243 -200 -221 -187 -616 -596 -815 -843 -38 -48 -95 -116
-125 -150 -67 -77 -165 -212 -259 -356 -27 -41 -59 -86 -71 -100 -11 -14 -35
-49 -53 -79 -18 -30 -39 -64 -47 -76 -30 -43 -74 -111 -98 -150 -14 -22 -33
-52 -43 -66 -10 -15 -30 -51 -45 -80 -52 -104 -69 -135 -90 -164 -12 -17 -26
-45 -33 -64 -6 -19 -18 -42 -26 -51 -8 -9 -21 -35 -30 -59 -8 -23 -24 -54 -35
-68 -11 -14 -20 -30 -20 -35 0 -10 -74 -171 -91 -198 -5 -8 -19 -35 -30 -60
-11 -25 -33 -72 -50 -104 -16 -32 -29 -67 -29 -76 0 -10 -8 -28 -19 -41 -10
-13 -26 -49 -36 -79 -10 -30 -26 -66 -36 -79 -11 -13 -19 -31 -19 -40 0 -35
-131 -271 -150 -271 -5 0 -27 -16 -50 -35 -23 -19 -47 -35 -54 -35 -6 0 -30
-10 -51 -22 -34 -19 -56 -22 -150 -22 -99 -1 -118 2 -185 29 -41 16 -90 42
-108 57 -18 15 -36 28 -40 28 -4 0 -24 22 -44 48 -34 47 -78 139 -100 211 -5
20 -8 84 -6 145 4 94 11 128 42 220 20 61 45 126 55 145 42 80 101 216 140
321 19 50 65 152 87 190 7 14 23 45 35 70 30 65 88 179 131 257 20 38 47 88
59 113 12 25 32 58 45 73 13 16 24 33 24 39 0 11 65 122 90 153 9 11 24 36 33
55 10 19 27 49 40 67 12 17 33 51 47 74 51 86 236 358 316 464 99 132 126 167
207 267 34 43 89 112 122 154 33 42 74 91 90 109 17 18 59 65 95 105 65 74
244 263 268 284 7 6 21 19 30 30 9 10 37 37 61 60 25 22 59 55 77 71 120 113
250 232 314 289 41 36 100 89 132 118 31 28 65 56 75 62 10 5 45 33 79 60 72
60 129 104 164 128 14 10 52 38 85 63 33 25 75 53 93 62 17 9 32 20 32 25 0 4
17 16 38 27 20 10 46 28 56 40 11 12 25 21 32 21 7 0 28 13 47 30 19 16 45 34
58 40 13 6 38 21 55 33 18 12 45 30 60 39 16 10 61 38 99 62 39 25 75 45 81
46 6 0 19 9 28 19 10 11 41 31 69 46 29 14 81 43 117 65 36 22 111 63 167 91
57 28 105 54 108 59 3 5 27 16 53 26 26 10 58 25 72 34 14 10 43 23 65 30 22
7 53 22 68 33 16 10 49 26 74 33 26 8 54 20 62 28 9 7 34 19 56 26 22 7 55 21
73 31 18 10 58 26 90 35 31 9 67 25 79 34 13 10 39 21 58 24 19 4 63 20 98 36
34 17 71 30 83 30 12 0 41 11 65 23 24 13 78 32 119 42 41 10 84 24 95 31 11
7 48 18 82 24 35 6 91 21 125 34 35 13 89 29 121 36 33 6 74 18 93 26 19 8 70
21 114 30 43 8 94 21 113 29 19 8 90 23 158 35 68 11 144 27 169 35 25 8 79
17 120 20 41 4 111 15 156 26 92 21 191 35 314 44 47 3 128 13 180 21 177 28
314 32 875 29 507 -2 573 -5 695 -23z m-753 -2350 c6 -4 23 -32 37 -62 15 -30
39 -77 55 -105 67 -118 182 -336 235 -445 9 -19 23 -46 30 -60 33 -59 227
-452 260 -525 21 -44 48 -101 62 -126 13 -26 24 -53 24 -61 0 -8 13 -41 29
-74 40 -82 81 -181 96 -235 7 -25 25 -69 39 -97 14 -28 26 -59 26 -69 0 -10
12 -49 25 -88 29 -79 65 -304 65 -399 0 -34 -9 -125 -19 -202 -19 -133 -34
-184 -89 -293 -52 -103 -81 -146 -133 -199 -14 -15 -30 -34 -35 -43 -12 -21
-160 -149 -172 -149 -6 0 -23 -11 -39 -24 -48 -39 -173 -92 -293 -122 -98 -25
-135 -29 -245 -29 -95 0 -143 5 -180 17 -27 9 -75 22 -105 28 -30 6 -65 18
-78 26 -13 9 -40 21 -60 29 -33 11 -70 33 -181 107 -50 34 -191 178 -229 234
-64 95 -80 122 -92 160 -7 22 -21 55 -31 74 -26 50 -52 244 -52 385 1 147 27
354 53 411 10 24 26 77 35 118 9 42 21 78 26 81 5 3 17 34 28 68 10 34 28 78
39 97 11 19 25 53 32 74 7 22 21 53 30 70 10 17 23 49 30 71 7 22 21 51 31 64
11 13 19 29 19 36 0 10 66 154 90 195 5 8 50 97 100 198 51 100 96 184 100
187 5 3 16 27 26 53 10 26 23 54 30 62 7 8 38 65 71 127 95 183 98 189 120
219 11 16 24 40 28 54 4 14 16 37 26 51 10 15 28 47 39 73 17 41 23 46 52 46
18 0 38 -4 45 -8z m3873 -2822 c41 -12 113 -28 160 -36 47 -9 95 -22 107 -30
12 -8 46 -19 75 -25 29 -6 71 -21 93 -34 22 -12 54 -25 70 -29 17 -4 50 -20
75 -35 25 -16 59 -34 77 -40 17 -7 39 -21 49 -32 9 -10 22 -19 28 -19 11 -1
120 -69 146 -92 8 -8 47 -39 86 -70 72 -58 135 -122 189 -193 46 -60 102 -146
116 -180 7 -16 19 -37 26 -46 8 -9 23 -43 34 -75 11 -32 29 -77 40 -100 10
-22 19 -49 19 -60 0 -10 7 -50 16 -89 38 -175 46 -239 34 -277 -8 -30 -16 -38
-34 -38 -33 0 -72 34 -96 83 -11 23 -36 67 -55 97 -19 30 -46 76 -60 103 -14
26 -29 47 -33 47 -4 0 -15 13 -24 28 -16 26 -89 112 -134 157 -97 96 -208 182
-318 247 -27 16 -163 77 -186 83 -14 4 -38 15 -55 25 -16 10 -59 24 -95 30
-36 6 -96 21 -135 33 -63 19 -93 21 -300 22 -211 0 -235 -2 -290 -22 -33 -12
-89 -26 -124 -33 -36 -6 -85 -22 -110 -34 -25 -13 -57 -27 -71 -31 -56 -17
-169 -79 -233 -128 -123 -94 -226 -205 -350 -376 -39 -54 -42 -58 -60 -96 -17
-35 -79 -152 -95 -180 -11 -19 -26 -60 -72 -195 -13 -36 -31 -83 -41 -105 -11
-22 -26 -76 -34 -120 -8 -44 -24 -105 -35 -135 -10 -30 -19 -72 -20 -92 0 -20
-5 -60 -11 -89 -17 -77 -10 -81 157 -85 77 -1 189 -10 249 -19 61 -8 162 -20
225 -25 63 -6 160 -21 215 -34 55 -14 125 -27 155 -31 30 -4 75 -16 99 -26 24
-11 72 -26 105 -35 34 -9 75 -24 91 -34 17 -10 46 -21 65 -25 19 -4 60 -20 90
-36 30 -16 62 -29 71 -29 9 0 36 -13 60 -30 24 -16 49 -30 54 -30 6 0 34 -15
62 -32 29 -18 75 -46 103 -63 29 -16 70 -45 92 -62 22 -18 44 -33 49 -33 4 0
23 -14 41 -30 18 -17 48 -42 65 -58 59 -49 125 -116 182 -184 84 -101 104
-129 122 -169 10 -20 22 -39 27 -43 16 -10 92 -170 92 -193 0 -11 11 -41 24
-66 17 -31 33 -94 50 -200 27 -161 33 -307 16 -367 -5 -19 -17 -80 -25 -136
-8 -56 -26 -126 -39 -155 -13 -30 -26 -71 -30 -91 -4 -21 -20 -63 -36 -94 -17
-31 -30 -62 -30 -69 0 -8 -11 -26 -24 -42 -13 -15 -26 -38 -30 -50 -16 -51
-124 -189 -239 -304 -55 -56 -225 -201 -263 -224 -18 -11 -64 -41 -102 -67
-38 -26 -77 -51 -88 -54 -10 -4 -32 -17 -49 -30 -38 -27 -164 -94 -179 -94 -6
0 -27 -11 -47 -24 -19 -13 -54 -30 -76 -36 -23 -7 -54 -26 -69 -41 -23 -24
-26 -32 -17 -51 6 -13 25 -41 42 -63 64 -79 166 -214 189 -247 12 -18 39 -56
60 -85 20 -29 46 -67 57 -85 11 -18 28 -46 38 -63 11 -16 27 -39 37 -50 10
-11 25 -33 34 -50 9 -16 28 -46 41 -65 45 -65 65 -95 113 -166 26 -39 79 -117
117 -173 39 -57 77 -113 85 -125 8 -12 26 -37 40 -56 14 -19 30 -42 35 -51 6
-10 42 -63 80 -119 39 -56 81 -119 95 -140 35 -53 95 -138 130 -185 17 -22 41
-54 53 -71 12 -17 42 -58 67 -90 25 -32 52 -68 60 -80 42 -61 163 -214 170
-214 4 0 11 -9 16 -20 5 -10 32 -45 60 -77 29 -32 85 -96 124 -143 178 -208
610 -650 733 -750 38 -30 99 -80 136 -110 80 -64 135 -106 211 -161 129 -91
233 -159 246 -159 6 0 18 -7 25 -16 8 -9 34 -25 59 -36 25 -11 52 -26 60 -33
9 -8 35 -21 59 -30 23 -8 54 -23 69 -33 15 -11 45 -25 67 -32 22 -7 50 -19 62
-26 25 -16 164 -66 258 -93 33 -10 74 -25 90 -33 17 -9 56 -21 87 -27 31 -7
62 -19 69 -28 11 -13 9 -19 -13 -38 -42 -36 -159 -49 -413 -46 -125 1 -259 8
-310 16 -49 7 -126 16 -169 20 -44 4 -98 14 -120 22 -23 8 -88 25 -146 38 -91
20 -151 37 -260 74 -14 5 -47 18 -75 29 -27 11 -63 24 -80 30 -101 34 -392
169 -453 209 -15 10 -43 27 -62 36 -52 26 -124 70 -141 85 -8 7 -26 21 -40 30
-46 30 -133 91 -174 121 -22 17 -63 46 -91 64 -50 34 -85 64 -213 184 -139
131 -355 355 -388 403 -9 14 -33 44 -52 67 -20 23 -47 56 -61 74 -14 17 -54
66 -90 109 -36 42 -78 96 -95 119 -16 23 -43 59 -60 80 -16 21 -43 57 -60 80
-16 23 -45 60 -62 83 -18 22 -33 45 -33 52 0 7 -11 23 -25 36 -14 13 -25 29
-25 36 0 7 -13 28 -28 46 -15 18 -48 67 -72 108 -24 41 -51 84 -60 95 -9 11
-36 54 -60 95 -24 41 -50 86 -59 99 -24 35 -68 111 -90 156 -11 22 -31 55 -45
74 -15 19 -26 40 -26 47 0 6 -13 28 -30 49 -16 21 -30 44 -30 51 0 7 -13 29
-30 47 -16 19 -30 39 -30 44 0 5 -27 45 -60 88 -33 43 -63 88 -66 99 -3 12
-16 31 -27 44 -23 25 -54 74 -89 140 -12 23 -26 42 -30 42 -5 0 -24 24 -43 53
-61 91 -67 99 -185 237 -124 146 -147 169 -200 202 -19 12 -48 32 -63 45 -16
13 -37 23 -48 23 -11 0 -38 9 -61 21 -51 26 -203 50 -238 37 -13 -5 -28 -15
-33 -21 -8 -13 -5 -247 19 -1312 8 -374 16 -891 17 -1150 l2 -470 -26 -12
c-14 -7 -55 -20 -90 -29 -49 -13 -109 -17 -259 -17 -164 0 -208 3 -275 21 -44
11 -114 26 -155 32 -41 7 -91 20 -110 30 -19 10 -62 23 -95 30 -33 7 -73 20
-90 30 -16 10 -55 25 -86 34 -31 9 -62 22 -68 30 -7 8 -28 20 -47 26 -37 13
-134 67 -174 98 -14 11 -41 27 -60 36 -19 9 -55 32 -80 51 -25 20 -58 43 -74
53 -25 15 -99 72 -210 164 -56 46 -288 278 -372 370 -38 42 -84 96 -102 120
-79 103 -92 121 -92 129 0 5 -13 23 -29 40 -16 16 -44 55 -62 86 -19 30 -46
70 -61 88 -15 17 -32 43 -38 56 -6 13 -21 38 -33 55 -12 18 -31 47 -42 65 -11
18 -35 55 -52 83 -18 28 -40 67 -49 86 -9 19 -27 48 -40 63 -13 16 -24 35 -24
42 0 7 -11 26 -24 42 -13 15 -31 46 -40 68 -9 22 -25 49 -35 60 -10 11 -24 37
-30 57 -7 21 -17 41 -23 44 -6 4 -21 30 -34 58 -14 28 -31 62 -39 76 -7 14
-22 43 -33 65 -17 35 -34 67 -95 180 -9 17 -17 35 -17 41 0 6 -12 29 -26 50
-15 21 -33 59 -40 85 -8 26 -21 52 -29 59 -8 7 -20 31 -26 54 -6 22 -20 53
-30 68 -11 15 -29 53 -39 84 -11 32 -26 65 -34 73 -7 9 -19 34 -26 56 -7 22
-23 60 -36 85 -13 25 -24 50 -24 57 0 7 -13 42 -30 78 -16 36 -43 93 -59 128
-15 34 -32 78 -36 97 -4 19 -18 53 -31 76 -13 22 -24 47 -24 56 0 8 -11 37
-25 64 -14 27 -32 73 -39 102 -8 30 -22 62 -30 71 -9 10 -24 42 -35 72 -11 30
-29 72 -40 94 -12 21 -21 46 -21 55 0 9 -11 38 -24 66 -24 47 -58 132 -96 240
-10 28 -27 69 -39 92 -12 23 -21 47 -21 55 0 8 -11 35 -24 60 -14 25 -30 65
-37 89 -7 24 -20 54 -30 68 -10 14 -29 52 -43 84 l-26 59 -73 -6 c-39 -3 -92
-14 -117 -25 -25 -11 -87 -28 -138 -37 -65 -12 -102 -24 -120 -40 l-27 -23 0
-473 c-1 -656 -37 -1968 -60 -2174 -8 -71 -21 -204 -30 -295 -18 -187 -67
-443 -115 -590 -53 -164 -89 -261 -109 -290 -10 -14 -24 -41 -31 -60 -8 -19
-22 -46 -32 -60 -11 -14 -42 -60 -70 -102 -28 -42 -86 -111 -128 -152 -80 -75
-201 -161 -255 -179 -16 -5 -42 -18 -56 -28 -14 -10 -48 -23 -75 -30 -27 -7
-65 -20 -84 -30 -76 -37 -412 -55 -582 -31 -42 7 -107 23 -145 38 -88 33 -199
90 -241 123 -64 51 -181 171 -188 193 -4 13 -17 36 -30 51 -13 15 -26 44 -30
65 -3 20 -15 58 -26 83 -11 26 -18 61 -16 80 2 25 9 34 31 42 22 7 37 4 75
-16 26 -13 63 -28 82 -32 19 -4 50 -18 70 -31 19 -12 53 -26 75 -30 22 -4 60
-16 85 -27 35 -15 69 -20 155 -21 92 -1 128 4 219 28 125 32 205 70 291 138
97 75 161 152 217 263 70 138 88 181 98 227 5 26 18 68 29 95 10 26 24 89 31
138 6 50 20 123 31 164 14 57 23 151 34 395 8 177 20 409 26 516 9 138 10 416
5 950 -4 415 -9 782 -11 816 -3 64 -17 104 -38 104 -7 0 -43 -6 -82 -14 -38
-8 -126 -17 -195 -21 -69 -3 -206 -13 -305 -22 -117 -10 -222 -13 -300 -9 -66
3 -210 11 -320 16 -237 12 -406 27 -439 40 -13 5 -85 18 -160 29 -75 11 -149
27 -164 35 -15 8 -69 21 -120 30 -52 9 -106 23 -120 30 -15 8 -56 20 -92 27
-36 6 -85 22 -110 34 -25 12 -67 28 -95 34 -27 7 -63 21 -80 31 -16 10 -50 24
-75 30 -25 7 -56 20 -71 30 -14 10 -38 22 -54 26 -25 6 -136 60 -240 117 -16
9 -34 17 -38 17 -5 0 -23 10 -40 22 -34 24 -91 56 -153 86 -23 11 -45 25 -49
31 -3 6 -27 23 -53 37 -128 69 -285 179 -390 273 -12 12 -35 29 -50 38 -15 9
-55 41 -89 70 -33 29 -66 53 -72 53 -6 0 -14 -12 -17 -27 -4 -15 -4 -223 -1
-462 5 -359 10 -460 26 -571 11 -74 27 -209 36 -300 8 -91 24 -196 35 -234 11
-37 22 -103 26 -145 4 -42 17 -107 30 -146 12 -38 27 -106 33 -150 5 -44 19
-100 29 -125 11 -25 25 -79 32 -120 7 -41 19 -87 26 -102 8 -15 21 -59 29 -98
8 -39 22 -84 31 -101 8 -17 24 -63 34 -104 10 -41 26 -87 34 -104 21 -40 22
-234 2 -273 -8 -14 -19 -43 -26 -65 -22 -65 -95 -147 -192 -214 -48 -32 -73
-41 -144 -53 -62 -10 -108 -11 -168 -5 -95 11 -126 20 -167 51 -145 110 -214
217 -274 423 -13 44 -33 109 -45 145 -45 138 -70 227 -80 286 -6 33 -19 85
-30 116 -11 31 -24 89 -31 130 -6 40 -19 102 -30 137 -11 36 -24 110 -30 165
-6 56 -19 133 -29 171 -11 39 -24 117 -30 175 -6 58 -19 161 -30 230 -51 326
-54 1443 -5 1700 8 41 19 127 25 190 10 107 30 223 51 295 5 17 13 73 19 125
7 52 20 127 30 166 10 39 23 105 30 148 6 43 20 103 31 134 11 31 26 100 35
152 12 78 19 99 40 118 14 12 34 22 45 22 11 0 27 -13 38 -32 24 -41 48 -75
109 -157 86 -116 121 -166 142 -203 11 -21 25 -38 30 -38 5 0 17 -15 26 -32
16 -31 42 -68 107 -148 94 -118 101 -125 259 -286 127 -130 288 -280 358 -332
19 -15 60 -47 90 -72 61 -51 68 -56 195 -140 50 -32 102 -68 116 -79 15 -12
35 -24 45 -28 11 -3 32 -16 48 -27 30 -21 68 -42 161 -91 28 -14 70 -36 95
-50 25 -13 51 -25 58 -25 7 0 30 -11 50 -25 20 -14 44 -25 53 -25 8 0 38 -11
65 -25 27 -14 74 -33 104 -41 30 -9 65 -22 76 -30 12 -7 55 -22 95 -33 41 -11
101 -28 134 -39 141 -46 271 -74 582 -127 138 -23 578 -36 842 -25 240 10 382
23 437 39 17 5 80 14 140 21 60 6 116 15 124 19 10 6 19 42 29 117 11 81 14
230 15 579 0 414 -2 496 -22 689 -12 121 -30 248 -41 285 -11 36 -27 97 -36
134 -8 38 -22 79 -30 90 -9 12 -20 40 -26 61 -6 22 -25 58 -42 80 -40 51 -158
166 -171 166 -5 0 -34 12 -65 28 -52 25 -64 27 -176 26 -87 -1 -132 -6 -165
-18 -25 -10 -67 -25 -95 -33 -96 -31 -257 -160 -339 -273 -14 -19 -37 -57 -51
-85 -14 -27 -32 -61 -40 -75 -20 -36 -45 -197 -45 -288 0 -108 29 -235 70
-302 50 -81 95 -130 192 -210 89 -72 106 -100 71 -118 -29 -15 -171 -21 -267
-11 -104 11 -161 33 -292 113 -51 32 -164 140 -205 196 -41 55 -96 179 -109
245 -7 33 -18 85 -26 115 -8 30 -14 98 -14 152 0 128 44 333 94 438 78 163
155 269 294 407 68 68 127 123 131 123 5 0 28 16 52 35 24 19 49 35 55 35 6 0
28 14 49 30 21 17 43 30 49 30 7 0 30 13 52 29 21 15 56 34 77 41 21 6 57 22
80 35 23 13 58 26 77 30 19 4 49 15 65 25 17 10 66 25 110 34 44 9 105 23 135
33 46 14 102 17 355 17 264 1 308 -1 365 -18 36 -10 98 -24 139 -32 40 -7 89
-23 108 -34 19 -11 55 -25 81 -32 26 -6 71 -24 100 -40 30 -15 61 -28 71 -28
9 0 36 -14 60 -30 24 -17 49 -30 55 -30 6 0 43 -23 81 -50 39 -28 83 -59 99
-69 35 -24 193 -169 255 -235 25 -28 55 -59 67 -70 21 -22 125 -149 159 -196
33 -44 138 -204 165 -249 14 -23 37 -58 52 -77 15 -19 29 -48 33 -64 3 -16 13
-35 22 -42 9 -7 27 -36 39 -65 13 -28 27 -54 33 -57 5 -4 17 -28 26 -55 9 -27
22 -54 29 -60 7 -6 21 -33 31 -59 10 -26 26 -57 36 -70 10 -13 21 -37 24 -54
4 -17 20 -51 36 -76 16 -25 29 -51 29 -57 0 -7 11 -32 23 -56 13 -24 30 -62
37 -84 7 -22 26 -65 42 -96 15 -31 28 -63 28 -70 0 -8 11 -32 25 -54 13 -22
25 -47 25 -56 0 -14 14 -46 74 -169 11 -23 18 -25 67 -23 30 1 75 9 99 18 25
10 79 24 120 32 41 8 111 25 155 39 44 13 114 30 155 38 41 8 91 21 111 30 19
8 67 20 105 26 38 6 95 20 127 31 32 11 92 24 134 30 41 6 104 19 138 30 35
11 110 26 167 35 56 8 129 22 160 30 31 8 123 21 205 29 81 8 179 24 218 35
38 11 88 20 110 20 22 0 57 5 77 10 38 11 39 13 53 105 4 22 15 67 25 100 11
33 24 89 30 125 6 36 25 105 41 153 16 49 29 96 29 105 0 10 9 35 20 57 11 21
26 61 35 89 8 28 26 73 40 100 14 27 25 56 25 64 0 8 11 35 25 61 13 25 34 66
45 91 12 25 35 71 53 102 18 31 42 75 54 97 13 22 27 43 33 46 6 3 20 25 31
48 20 38 49 78 97 132 10 11 25 31 34 45 43 70 235 258 354 347 65 49 100 74
128 90 16 10 40 28 55 39 14 12 37 25 51 29 14 4 36 16 49 26 30 24 186 99
204 99 8 0 38 13 68 29 30 15 74 31 97 35 24 3 70 17 102 31 32 13 88 29 126
35 38 6 93 18 122 26 29 9 83 20 120 24 37 5 222 7 412 5 320 -3 350 -4 420
-25z m-10618 -7055 c40 -9 82 -24 93 -34 11 -10 32 -25 46 -32 35 -19 87 -66
125 -115 39 -50 99 -144 119 -186 8 -18 25 -47 38 -65 12 -17 37 -55 55 -85
18 -29 53 -80 77 -113 25 -33 52 -73 61 -90 9 -16 29 -44 43 -62 14 -17 36
-46 49 -65 40 -58 174 -238 202 -270 8 -10 44 -53 80 -98 220 -272 268 -326
470 -529 176 -176 274 -270 301 -286 10 -5 43 -33 75 -62 67 -59 185 -158 304
-253 45 -36 92 -74 105 -85 12 -11 46 -38 74 -60 29 -22 67 -52 85 -67 19 -16
37 -28 41 -28 8 0 58 -36 135 -95 21 -16 62 -43 90 -60 28 -16 70 -45 92 -62
22 -18 45 -33 52 -33 7 0 30 -13 52 -30 21 -16 44 -30 51 -30 7 0 27 -12 45
-28 18 -15 49 -35 68 -45 19 -10 60 -33 90 -52 52 -32 92 -54 228 -125 31 -17
64 -34 72 -39 28 -17 187 -91 194 -91 4 0 20 -9 35 -19 15 -11 40 -23 57 -27
16 -4 57 -22 92 -41 35 -18 71 -33 80 -33 9 0 31 -9 49 -19 17 -11 55 -27 83
-35 28 -9 66 -24 83 -34 18 -11 53 -24 79 -31 26 -6 62 -20 80 -30 18 -11 53
-25 78 -31 25 -7 62 -21 82 -31 21 -11 61 -24 90 -30 29 -6 66 -18 81 -26 15
-7 65 -23 110 -34 45 -11 102 -28 127 -38 25 -11 72 -22 105 -27 33 -4 84 -15
114 -25 29 -11 95 -26 145 -34 50 -9 118 -24 151 -34 33 -10 98 -22 145 -26
47 -4 139 -18 205 -31 67 -14 191 -28 281 -34 89 -5 237 -17 330 -27 228 -23
718 -23 889 0 66 9 161 19 210 22 135 9 263 25 325 41 31 7 112 18 180 24 69
6 152 19 185 30 33 10 103 26 156 34 52 9 112 23 133 31 22 9 74 23 116 30 42
7 94 21 115 29 21 9 74 25 118 36 44 11 86 25 92 30 7 6 47 17 89 25 42 8 86
21 99 30 21 13 50 24 240 90 39 14 90 34 112 44 45 21 123 53 205 84 30 11 66
28 80 37 14 10 43 23 65 30 22 7 51 21 64 31 13 11 42 24 65 30 22 6 52 19 66
29 14 9 43 23 65 30 22 7 47 18 55 25 8 7 40 24 71 38 31 14 59 29 63 35 3 6
23 16 44 23 20 6 46 19 57 29 11 9 38 26 60 37 92 47 139 74 154 87 15 14 52
35 152 90 25 13 51 31 58 39 7 9 44 35 84 58 40 24 90 56 111 71 21 16 44 28
51 28 7 0 20 9 29 19 10 11 32 25 49 32 18 7 47 23 65 37 23 17 61 29 123 39
80 14 99 14 172 0 62 -11 95 -24 137 -52 54 -36 121 -101 169 -165 14 -19 33
-71 47 -132 13 -55 24 -109 24 -120 0 -11 -9 -58 -20 -105 -14 -58 -31 -97
-53 -126 -40 -53 -167 -177 -181 -177 -5 0 -22 -12 -38 -27 -15 -14 -43 -36
-62 -47 -69 -42 -121 -79 -124 -88 -2 -5 -25 -19 -51 -33 -26 -13 -53 -31 -60
-39 -8 -9 -19 -16 -26 -16 -7 0 -29 -13 -50 -30 -20 -16 -46 -32 -58 -36 -12
-3 -30 -14 -40 -23 -22 -18 -94 -61 -152 -90 -22 -11 -55 -31 -74 -45 -19 -15
-40 -26 -47 -26 -6 0 -27 -11 -46 -24 -20 -13 -53 -29 -74 -36 -22 -7 -48 -20
-59 -30 -11 -10 -40 -27 -65 -39 -25 -12 -56 -28 -70 -36 -14 -8 -41 -21 -60
-29 -19 -8 -46 -21 -60 -29 -39 -23 -153 -75 -180 -83 -14 -4 -49 -20 -79 -35
-30 -16 -62 -29 -71 -29 -9 0 -37 -11 -61 -23 -24 -13 -62 -30 -84 -37 -22 -7
-60 -23 -85 -36 -25 -13 -54 -24 -66 -24 -12 0 -46 -14 -77 -30 -31 -17 -65
-30 -75 -30 -10 0 -41 -11 -68 -25 -27 -14 -77 -32 -112 -40 -34 -8 -72 -21
-85 -29 -12 -8 -51 -22 -86 -31 -36 -9 -81 -25 -100 -35 -20 -10 -68 -23 -107
-29 -39 -6 -91 -19 -115 -30 -24 -11 -83 -26 -131 -35 -47 -9 -105 -23 -127
-31 -22 -8 -78 -19 -123 -25 -46 -6 -114 -20 -151 -31 -38 -11 -121 -26 -185
-34 -65 -8 -157 -23 -207 -34 -49 -11 -148 -25 -219 -31 -71 -6 -152 -15 -180
-20 -100 -18 -297 -31 -517 -34 -330 -5 -838 10 -939 27 -93 16 -143 22 -325
37 -66 5 -151 16 -190 25 -38 8 -123 22 -188 30 -64 9 -145 24 -180 35 -34 11
-102 24 -152 29 -49 6 -115 18 -145 27 -30 8 -95 23 -145 33 -49 9 -105 25
-123 34 -18 10 -58 22 -90 28 -31 5 -84 21 -117 34 -33 13 -75 26 -94 29 -19
4 -57 17 -85 30 -28 13 -69 27 -91 31 -22 4 -65 18 -95 30 -30 13 -84 33 -120
45 -143 48 -205 71 -225 84 -11 7 -38 19 -60 26 -22 7 -55 21 -73 31 -18 10
-57 26 -86 34 -30 9 -60 22 -66 30 -6 8 -35 21 -65 29 -29 9 -58 22 -64 30 -6
7 -31 19 -56 26 -24 7 -59 23 -77 36 -17 13 -36 24 -41 24 -9 0 -189 88 -237
116 -14 8 -36 19 -50 25 -14 5 -54 28 -90 49 -36 22 -85 49 -110 61 -25 12
-58 32 -73 45 -16 13 -34 24 -41 24 -7 0 -23 11 -36 24 -12 14 -35 28 -50 31
-15 3 -36 15 -46 27 -11 11 -39 31 -64 44 -49 27 -82 48 -253 163 -38 25 -86
57 -107 71 -94 63 -117 79 -139 104 -14 14 -30 26 -36 26 -11 0 -73 48 -234
182 -35 29 -76 60 -90 69 -14 9 -46 35 -71 58 -24 23 -60 54 -80 69 -35 26
-168 144 -276 245 -52 48 -442 437 -483 482 -47 51 -174 200 -198 233 -15 20
-42 55 -61 77 -18 22 -42 51 -53 65 -11 14 -45 56 -75 94 -30 37 -60 78 -66
90 -6 11 -37 51 -69 87 -33 37 -59 71 -59 75 0 5 -15 28 -33 51 -17 23 -48 64
-67 92 -19 28 -46 66 -60 85 -14 19 -33 47 -42 63 -10 15 -31 48 -48 73 -17
25 -38 58 -48 73 -9 16 -32 52 -50 80 -17 28 -51 88 -73 132 -22 44 -47 91
-55 105 -7 14 -25 55 -39 91 -19 51 -25 84 -25 148 0 64 6 100 27 159 15 43
36 90 47 106 27 37 114 124 154 154 37 27 140 50 234 51 37 1 99 -6 140 -14z
m13995 -7059 c65 -8 162 -20 216 -26 54 -7 123 -20 153 -30 30 -11 82 -24 117
-31 34 -7 78 -20 97 -29 19 -9 56 -22 81 -28 55 -14 159 -66 177 -89 9 -13 12
-108 12 -396 l0 -379 -34 -34 c-38 -38 -70 -43 -116 -19 -19 10 -34 30 -46 62
-10 27 -27 66 -40 88 -12 22 -25 51 -29 65 -8 26 -30 65 -100 172 -66 104
-217 243 -285 263 -14 4 -50 20 -80 36 -30 16 -61 29 -68 29 -7 0 -61 12 -120
26 -92 23 -121 25 -207 21 -55 -3 -118 -12 -140 -20 -22 -8 -60 -18 -85 -22
-25 -4 -79 -24 -120 -43 -102 -49 -178 -104 -268 -195 -61 -61 -95 -104 -117
-147 -9 -19 -25 -44 -35 -55 -10 -11 -23 -38 -30 -59 -7 -22 -21 -53 -31 -70
-9 -17 -23 -51 -29 -76 -7 -25 -20 -61 -30 -80 -9 -19 -23 -66 -29 -105 -7
-38 -21 -103 -32 -144 -31 -120 -44 -404 -31 -682 7 -146 17 -255 27 -289 8
-30 24 -101 34 -158 11 -57 26 -113 34 -125 7 -12 21 -51 31 -87 10 -36 24
-72 31 -80 7 -8 20 -36 30 -62 9 -26 26 -55 36 -64 11 -9 19 -23 19 -29 0 -7
15 -32 33 -56 36 -49 205 -219 217 -219 4 0 24 -13 45 -30 21 -16 45 -30 54
-30 9 0 35 -13 58 -29 24 -16 60 -32 80 -36 21 -3 67 -15 103 -26 89 -27 324
-37 395 -16 28 8 79 24 115 34 36 11 83 32 104 46 21 15 43 27 48 27 25 0 164
120 225 194 88 106 127 168 210 337 31 63 68 124 82 134 32 24 94 24 121 0 18
-16 20 -31 20 -124 0 -179 -19 -485 -35 -577 -16 -95 -30 -118 -95 -156 -19
-12 -47 -32 -62 -44 -15 -12 -42 -25 -60 -29 -18 -4 -51 -18 -73 -30 -22 -13
-60 -26 -85 -30 -25 -4 -62 -16 -83 -26 -20 -11 -83 -26 -140 -34 -56 -8 -123
-21 -149 -29 -70 -22 -361 -39 -523 -32 -133 6 -173 13 -400 69 -73 19 -206
67 -260 96 -21 12 -44 21 -51 21 -6 0 -28 13 -49 30 -21 17 -42 30 -47 30 -19
0 -134 75 -198 129 -149 126 -274 272 -344 403 -14 26 -30 49 -35 52 -5 4 -17
28 -26 55 -9 27 -23 55 -31 62 -8 6 -21 37 -30 68 -9 31 -23 69 -31 85 -8 16
-24 72 -34 124 -11 52 -26 114 -34 138 -8 25 -19 123 -26 230 -8 140 -8 235 1
386 8 139 17 219 30 262 10 33 24 93 31 131 6 39 20 86 29 105 10 19 23 54 29
78 7 23 23 59 36 79 14 20 25 44 25 53 0 9 12 34 26 55 14 21 30 49 34 61 11
28 77 126 144 214 66 87 272 292 316 315 19 10 39 24 43 32 5 7 36 28 69 46
92 49 130 70 168 94 19 13 42 23 51 23 9 0 36 11 60 23 24 13 69 30 99 37 30
7 71 21 90 30 31 16 163 38 360 60 109 12 232 11 357 -4z m3151 -22 c35 -10
66 -78 146 -319 10 -27 26 -72 37 -100 12 -27 27 -72 35 -100 7 -27 22 -70 33
-95 18 -42 31 -79 82 -232 11 -35 27 -76 36 -93 8 -16 23 -57 33 -91 10 -33
25 -74 34 -92 9 -17 21 -55 27 -84 6 -29 19 -66 29 -83 10 -16 26 -57 36 -90
9 -33 23 -69 30 -80 7 -11 18 -42 25 -70 7 -27 22 -70 34 -95 12 -25 27 -67
34 -95 7 -27 18 -60 26 -71 8 -12 21 -50 30 -85 9 -35 21 -69 26 -76 10 -11
43 -104 89 -243 12 -36 30 -82 41 -103 11 -20 30 -72 44 -115 38 -124 55 -174
80 -232 14 -30 30 -75 36 -100 6 -25 17 -57 25 -71 7 -15 22 -57 33 -95 59
-209 110 -308 193 -379 62 -53 132 -100 168 -110 21 -7 44 -24 58 -45 19 -28
22 -43 17 -75 -3 -22 -11 -45 -18 -52 -9 -9 -167 -12 -640 -14 -588 -2 -629
-1 -647 16 -28 25 -35 76 -16 113 9 17 24 35 34 40 9 5 43 14 75 21 55 12 59
15 98 74 35 55 39 67 33 102 -3 22 -10 47 -14 55 -4 8 -16 51 -25 95 -10 44
-26 97 -36 117 -11 21 -24 61 -30 90 -6 29 -20 69 -29 89 -10 19 -26 64 -35
100 -9 35 -23 71 -30 79 -7 8 -18 34 -24 56 -6 23 -19 48 -28 55 -13 11 -114
15 -537 17 -287 1 -545 0 -574 -4 -29 -3 -59 -12 -66 -20 -8 -7 -17 -35 -21
-61 -4 -26 -15 -64 -25 -84 -10 -19 -28 -72 -39 -117 -11 -45 -27 -94 -35
-110 -8 -15 -20 -57 -26 -92 -6 -36 -19 -81 -27 -100 -8 -19 -20 -69 -27 -111
-16 -95 -8 -120 55 -177 32 -29 62 -46 104 -56 31 -9 73 -27 91 -41 27 -21 34
-33 34 -60 0 -21 -9 -44 -23 -60 l-23 -27 -492 0 c-426 0 -496 2 -516 15 -34
22 -38 61 -12 110 19 36 37 49 121 93 75 39 111 65 147 105 27 31 59 82 74
119 37 90 92 242 116 320 11 36 29 82 39 102 11 21 19 45 19 55 0 10 12 43 26
73 14 30 32 80 40 110 8 30 21 65 29 76 8 12 21 50 30 85 9 34 25 79 34 98 10
20 23 58 30 84 6 27 18 59 26 70 7 12 23 57 35 101 11 43 27 90 34 105 8 14
19 46 26 71 7 24 22 65 35 90 12 25 26 65 30 90 4 25 16 63 26 85 11 22 27 67
35 100 9 32 22 72 31 89 8 16 23 57 33 90 21 68 69 201 94 258 9 21 21 61 27
90 6 29 20 69 30 88 11 19 25 58 33 85 7 28 23 73 34 100 28 71 61 169 82 245
10 36 28 85 39 110 11 25 21 51 21 59 0 7 19 56 41 107 43 99 44 99 119 107
62 7 414 7 438 1z m-16825 -55 c33 -35 35 -80 8 -125 -14 -23 -36 -38 -76 -53
-30 -12 -68 -21 -83 -21 -20 0 -42 -16 -90 -67 -34 -36 -66 -78 -70 -92 -4
-14 -7 -494 -7 -1066 0 -732 3 -1056 11 -1095 26 -125 66 -267 83 -290 10 -14
22 -37 26 -50 9 -31 71 -123 116 -172 39 -41 138 -118 154 -118 6 0 39 -15 75
-32 l65 -33 200 0 c197 0 201 0 255 27 30 15 66 30 80 34 14 4 38 16 54 28 47
34 170 159 188 191 10 17 22 37 27 45 34 54 65 134 81 211 11 49 24 97 29 107
26 49 33 302 32 1230 0 631 -4 966 -11 992 -7 28 -25 52 -63 83 -64 54 -80 62
-137 71 -58 9 -88 29 -106 71 -19 46 -17 95 4 122 l17 23 505 6 c505 6 505 6
524 -15 26 -28 32 -107 13 -153 -14 -33 -20 -37 -74 -48 -32 -6 -68 -13 -80
-16 -31 -6 -123 -83 -144 -119 -31 -53 -40 -297 -43 -1140 -2 -661 -5 -833
-20 -990 -11 -130 -24 -215 -41 -270 -13 -44 -27 -98 -31 -120 -3 -22 -16 -56
-29 -76 -13 -20 -28 -52 -33 -72 -6 -20 -19 -49 -30 -64 -11 -15 -27 -45 -35
-65 -9 -21 -21 -38 -26 -38 -6 0 -18 -14 -27 -31 -19 -37 -103 -124 -164 -171
-60 -45 -159 -104 -190 -113 -14 -4 -45 -18 -70 -31 -25 -13 -57 -24 -73 -24
-15 0 -80 -13 -143 -30 -96 -25 -141 -30 -286 -36 -187 -7 -383 7 -439 30 -19
8 -70 20 -114 27 -69 10 -180 46 -250 79 -34 17 -131 74 -173 102 -58 39 -180
165 -202 208 -10 20 -26 42 -34 50 -19 15 -96 169 -96 190 0 8 -12 39 -25 69
-29 62 -49 170 -71 396 -13 135 -15 263 -11 825 6 774 -3 1262 -24 1301 -41
76 -115 127 -241 165 -48 15 -56 25 -58 79 -3 48 -1 60 14 81 14 18 35 19 603
24 323 3 620 4 658 2 63 -3 73 -6 98 -33z m6500 28 l589 -2 24 -28 c30 -35 32
-94 5 -128 -12 -15 -51 -35 -105 -54 -66 -23 -98 -41 -137 -77 l-52 -47 5 -63
c3 -35 15 -84 28 -110 12 -26 27 -73 35 -105 7 -32 22 -82 34 -110 11 -29 31
-77 42 -105 12 -29 29 -82 39 -118 9 -36 26 -83 37 -105 11 -22 24 -56 28 -75
4 -19 18 -55 30 -80 12 -25 26 -61 30 -80 4 -19 20 -65 36 -102 16 -36 29 -75
29 -85 0 -11 11 -41 25 -68 13 -27 29 -70 35 -97 5 -27 19 -66 29 -86 11 -21
27 -64 37 -97 9 -33 22 -69 29 -80 7 -11 18 -45 25 -75 7 -30 21 -70 31 -88
10 -18 26 -60 35 -95 8 -34 22 -72 29 -84 8 -11 20 -43 26 -70 7 -26 19 -61
27 -78 16 -32 59 -166 95 -299 12 -44 27 -81 34 -83 19 -7 64 75 83 147 9 36
22 76 29 89 7 13 22 55 32 93 11 38 26 79 33 91 8 12 20 49 27 82 7 33 19 73
27 90 13 27 41 102 87 240 9 28 30 84 46 125 16 41 29 81 29 89 0 7 11 39 24
70 22 52 35 87 87 244 11 34 29 81 40 105 10 23 24 64 30 90 5 26 21 72 34
102 25 60 55 149 85 250 11 36 26 77 35 91 8 15 22 58 30 95 9 38 24 92 35
119 28 74 50 186 43 218 -3 16 -17 35 -32 44 -14 9 -38 24 -52 34 -15 10 -64
27 -110 38 -104 26 -129 49 -129 120 0 33 6 56 19 72 l19 24 516 3 516 3 25
-25 c27 -27 31 -56 14 -103 -7 -23 -26 -39 -67 -61 -31 -16 -74 -35 -94 -41
-23 -8 -56 -33 -88 -67 -27 -31 -50 -61 -50 -68 0 -8 -9 -25 -21 -39 -11 -15
-27 -48 -36 -74 -9 -26 -24 -61 -34 -78 -10 -16 -23 -52 -30 -80 -7 -27 -23
-70 -36 -94 -13 -24 -23 -53 -23 -64 0 -10 -11 -41 -25 -69 -14 -27 -32 -76
-40 -108 -9 -33 -24 -74 -34 -92 -11 -18 -22 -48 -26 -67 -4 -19 -20 -61 -36
-95 -16 -34 -29 -70 -29 -81 0 -11 -11 -43 -24 -71 -13 -28 -27 -66 -31 -85
-4 -19 -15 -53 -26 -75 -11 -23 -28 -70 -38 -105 -10 -35 -28 -86 -39 -114
-12 -27 -28 -72 -37 -100 -40 -118 -65 -185 -83 -221 -11 -22 -23 -55 -27 -74
-4 -19 -14 -51 -23 -70 -8 -19 -28 -69 -42 -110 -15 -41 -42 -113 -60 -160
-17 -47 -42 -114 -55 -150 -13 -36 -33 -83 -44 -105 -12 -21 -21 -48 -21 -58
0 -10 -13 -49 -30 -87 -16 -38 -30 -77 -30 -87 0 -10 -13 -45 -29 -79 -16 -33
-34 -84 -40 -113 -6 -28 -17 -62 -25 -74 -8 -12 -21 -48 -29 -79 -8 -31 -24
-69 -36 -84 -11 -14 -23 -42 -27 -63 -9 -48 -20 -68 -50 -87 -21 -14 -56 -16
-247 -15 -246 2 -257 5 -276 64 -6 18 -20 51 -31 72 -11 22 -20 47 -20 56 0 9
-13 40 -29 70 -15 30 -32 70 -36 89 -4 19 -16 49 -26 66 -10 17 -25 57 -32 90
-8 32 -23 75 -34 94 -11 19 -26 56 -32 82 -6 26 -20 62 -30 80 -11 18 -23 51
-26 73 -4 22 -19 67 -34 100 -28 60 -39 87 -91 241 -15 45 -35 92 -43 105 -9
13 -19 42 -23 64 -4 22 -15 56 -25 76 -9 19 -25 64 -34 100 -9 35 -23 73 -30
85 -8 12 -21 48 -30 80 -10 32 -23 69 -31 81 -8 13 -21 49 -29 80 -8 32 -26
80 -40 107 -14 27 -25 59 -25 70 0 12 -11 41 -24 66 -13 25 -29 65 -36 90 -6
25 -20 60 -31 79 -11 18 -25 56 -31 85 -6 28 -21 69 -33 91 -13 22 -26 56 -30
75 -4 19 -18 53 -30 75 -13 22 -26 58 -30 79 -3 22 -20 64 -36 94 -16 30 -29
63 -29 73 0 9 -13 46 -30 81 -16 34 -30 71 -30 82 0 10 -13 42 -29 70 -16 28
-32 62 -36 76 -11 39 -73 128 -98 141 -12 7 -35 23 -50 35 -16 13 -36 24 -45
24 -30 0 -139 57 -156 81 -23 33 -21 100 4 132 23 29 40 33 125 29 33 -1 325
-3 648 -5z m-10827 -12 c40 -12 58 -25 88 -62 41 -53 42 -55 190 -274 58 -86
106 -161 106 -167 0 -6 7 -15 15 -20 9 -4 38 -42 65 -83 27 -41 58 -85 68 -99
11 -14 55 -77 98 -140 108 -158 149 -218 189 -270 18 -25 60 -83 92 -129 137
-197 157 -225 208 -291 18 -25 48 -67 65 -95 33 -54 36 -58 150 -210 41 -55
84 -114 95 -132 11 -17 40 -60 65 -94 25 -35 54 -78 65 -95 79 -124 129 -189
143 -189 15 0 17 15 20 110 1 61 -1 497 -6 970 l-8 860 -26 50 c-34 65 -114
131 -171 140 -120 19 -157 47 -157 121 0 55 16 89 48 103 18 9 156 12 496 11
262 -1 488 -6 508 -11 21 -5 42 -18 48 -29 5 -10 10 -39 10 -65 0 -37 -5 -51
-26 -70 -14 -13 -47 -32 -72 -41 -26 -9 -60 -21 -75 -27 -47 -17 -115 -88
-132 -137 -9 -25 -26 -85 -37 -135 -21 -89 -21 -111 -24 -1470 -1 -759 -3
-1407 -3 -1441 -1 -54 -5 -65 -33 -97 l-33 -37 -136 -6 c-75 -4 -152 -4 -171
0 -26 5 -46 20 -81 64 -56 68 -126 161 -184 246 -24 33 -56 79 -73 102 -16 23
-30 44 -30 48 0 7 -58 96 -89 137 -12 15 -24 35 -28 45 -3 11 -18 33 -32 51
-40 48 -87 115 -101 143 -7 14 -22 35 -34 46 -12 12 -31 37 -44 55 -12 19 -37
54 -55 78 -18 24 -37 52 -43 62 -6 10 -23 30 -37 43 -15 14 -27 31 -27 39 0 8
-27 50 -60 95 -33 44 -60 84 -60 89 0 4 -16 28 -35 53 -79 104 -122 165 -155
220 -11 19 -34 53 -51 75 -41 55 -159 228 -186 273 -12 20 -31 48 -43 62 -40
48 -67 85 -80 110 -17 33 -64 98 -126 173 -28 34 -63 80 -77 102 -50 75 -61
90 -83 115 -12 14 -29 40 -39 59 -13 25 -19 31 -28 22 -9 -9 -11 -237 -9 -909
1 -498 7 -968 13 -1057 6 -88 20 -194 30 -235 16 -63 25 -81 58 -110 56 -51
119 -86 179 -100 44 -10 58 -19 87 -57 27 -35 33 -52 29 -72 -4 -14 -14 -34
-24 -45 -17 -17 -42 -18 -546 -17 -306 1 -535 6 -545 11 -9 6 -22 25 -29 44
-9 27 -8 42 4 69 17 43 47 63 106 72 43 7 80 31 155 100 50 46 72 124 85 305
8 107 10 527 8 1345 l-3 1190 -26 50 c-18 34 -44 62 -80 88 -30 20 -72 42 -94
48 -22 6 -64 25 -93 42 -38 23 -55 40 -61 62 -11 39 -3 95 17 118 14 16 47 17
432 17 339 0 426 -3 466 -15z m8594 -5 c217 -34 395 -83 454 -123 21 -15 44
-27 51 -27 7 0 41 -22 76 -48 104 -79 229 -231 258 -313 6 -18 19 -41 28 -51
17 -19 46 -136 65 -260 9 -58 9 -100 0 -165 -19 -153 -43 -267 -63 -299 -10
-17 -25 -49 -33 -70 -15 -41 -68 -133 -101 -173 -37 -46 -150 -153 -189 -180
-21 -14 -55 -34 -75 -45 -20 -10 -49 -29 -64 -42 -16 -13 -35 -24 -43 -24 -7
0 -41 -14 -74 -32 -80 -42 -81 -49 -12 -142 26 -36 61 -88 77 -117 17 -29 42
-73 57 -98 15 -25 39 -68 53 -96 14 -27 44 -79 65 -115 22 -36 49 -84 59 -106
11 -23 24 -45 30 -48 6 -4 21 -28 34 -54 47 -92 86 -164 99 -179 13 -16 43
-70 73 -133 10 -19 30 -51 45 -70 14 -19 29 -42 32 -50 11 -29 126 -168 164
-197 20 -15 53 -42 73 -59 20 -17 54 -37 75 -44 58 -19 106 -50 116 -74 10
-29 1 -83 -18 -98 -12 -10 -103 -12 -421 -10 -245 1 -418 6 -437 12 -30 10
-96 80 -152 162 -12 18 -34 49 -47 68 -22 31 -47 74 -95 158 -8 15 -26 45 -40
67 -38 61 -56 94 -89 162 -17 34 -36 65 -42 68 -6 4 -19 26 -29 49 -11 22 -26
52 -34 66 -9 14 -22 41 -31 60 -8 19 -33 67 -55 105 -21 39 -48 90 -60 114
-11 24 -29 55 -39 70 -10 14 -21 38 -25 53 -3 14 -17 39 -30 55 -13 15 -27 39
-31 53 -4 14 -16 34 -26 45 -10 11 -25 36 -33 55 -8 19 -25 45 -39 57 -14 11
-30 29 -35 39 -8 15 -28 20 -104 26 -81 6 -96 4 -118 -11 -22 -16 -26 -27 -30
-97 -8 -127 8 -1025 19 -1069 7 -30 26 -55 78 -103 37 -34 78 -65 91 -68 12
-4 45 -9 74 -13 45 -5 54 -10 71 -38 22 -39 25 -109 5 -129 -13 -13 -112 -15
-689 -15 l-674 0 -17 22 c-24 29 -23 74 3 110 24 34 59 54 112 63 67 12 180
115 193 175 3 14 8 32 10 40 8 27 4 2737 -5 2774 -9 37 -70 116 -100 129 -9 3
-50 17 -91 29 -41 12 -85 32 -98 44 -29 27 -40 96 -22 131 8 13 27 28 43 32
17 4 382 9 811 11 758 3 785 2 916 -19z m6806 -13 c22 -26 25 -38 21 -74 -6
-52 -30 -83 -65 -83 -14 0 -58 -16 -98 -35 -51 -25 -85 -50 -113 -84 -22 -26
-45 -61 -51 -77 -15 -39 -27 -784 -29 -1714 -1 -707 7 -1026 29 -1099 12 -42
52 -86 101 -111 19 -10 41 -25 48 -33 6 -9 35 -21 64 -27 109 -26 157 -73 142
-140 -5 -23 -16 -35 -38 -45 -25 -10 -171 -11 -684 -7 -478 3 -657 8 -669 16
-9 7 -18 33 -21 59 -8 69 11 93 88 108 64 13 79 22 170 110 l47 45 8 90 c11
111 10 2553 0 2689 l-8 100 -55 51 c-47 45 -64 54 -138 74 -46 12 -92 31 -100
41 -19 20 -30 86 -21 123 14 55 -19 52 690 53 l656 1 26 -31z"/>
<path d="M12310 17134 c-8 -19 -9 -120 -5 -308 4 -154 11 -290 16 -303 5 -13
13 -23 19 -23 6 0 23 6 39 14 15 8 55 18 89 22 34 3 69 12 79 19 15 11 15 18
5 67 -7 30 -22 72 -34 94 -11 21 -29 63 -39 93 -11 30 -23 59 -28 65 -10 12
-49 110 -86 216 -12 35 -27 66 -33 68 -7 2 -17 -9 -22 -24z"/>
<path d="M17218 16768 c-16 -5 -28 -15 -29 -21 0 -7 -1 -32 -3 -57 -2 -25 -9
-142 -15 -260 -6 -118 -16 -249 -21 -290 -24 -172 -31 -285 -45 -699 -8 -240
-19 -497 -25 -571 -5 -74 -12 -202 -16 -285 -6 -142 -5 -151 14 -175 l20 -25
179 1 c149 0 191 4 258 22 44 12 110 26 147 32 37 6 82 19 100 29 18 11 57 26
86 35 30 8 68 24 85 35 18 10 43 22 57 26 22 7 84 45 150 92 31 23 166 158
203 204 84 104 187 312 208 419 38 200 50 388 29 475 -5 22 -14 76 -20 119 -7
47 -22 99 -36 125 -13 25 -24 53 -24 62 0 9 -11 33 -25 53 -14 20 -32 50 -41
67 -53 104 -271 322 -344 344 -14 4 -34 15 -45 25 -28 24 -161 87 -215 100
-25 7 -61 20 -80 30 -19 9 -65 23 -102 29 -37 6 -96 20 -130 31 -35 10 -112
23 -172 29 -60 6 -112 11 -115 10 -3 0 -18 -5 -33 -11z"/>
<path d="M15685 16648 c-60 -5 -135 -15 -165 -24 -30 -8 -107 -23 -170 -34
-63 -11 -133 -27 -156 -35 -22 -8 -78 -22 -124 -30 -46 -8 -107 -23 -135 -34
-27 -11 -86 -28 -130 -39 -175 -44 -212 -54 -270 -74 -33 -11 -89 -27 -124
-35 -35 -7 -76 -20 -92 -28 -15 -8 -66 -24 -111 -35 -48 -11 -88 -27 -95 -37
-19 -25 -16 -61 7 -94 12 -15 28 -52 36 -80 9 -29 22 -62 29 -73 8 -12 24 -48
36 -81 12 -33 28 -69 35 -80 7 -11 18 -40 24 -65 7 -25 20 -58 30 -75 10 -16
25 -53 33 -80 8 -28 24 -66 36 -85 11 -19 21 -42 21 -50 0 -8 16 -46 35 -84
19 -39 35 -76 35 -83 0 -7 14 -39 30 -70 17 -31 30 -63 30 -72 0 -9 8 -30 18
-46 10 -17 28 -55 40 -85 11 -30 30 -74 41 -97 12 -23 21 -47 21 -53 0 -12 62
-148 86 -190 9 -14 22 -41 30 -60 8 -19 25 -57 38 -85 14 -27 30 -65 36 -84 5
-19 17 -42 25 -51 8 -9 21 -35 30 -59 8 -23 23 -54 34 -69 10 -15 24 -46 30
-69 6 -23 16 -45 21 -48 9 -5 43 -74 104 -205 9 -19 34 -66 55 -105 22 -38 50
-90 64 -115 13 -25 47 -85 75 -135 29 -49 52 -94 52 -99 0 -5 11 -23 24 -41
13 -17 31 -47 40 -66 24 -48 67 -120 94 -154 12 -15 22 -32 22 -38 0 -6 11
-24 24 -41 13 -17 33 -49 45 -71 25 -46 73 -123 114 -185 57 -84 56 -95 56
737 1 747 12 1254 31 1448 5 55 14 210 20 345 17 406 29 622 39 681 5 31 15
130 21 220 6 90 15 190 21 222 16 93 18 93 -196 75z"/>
<path d="M25012 4683 c-5 -10 -15 -49 -21 -88 -7 -38 -21 -85 -32 -104 -11
-18 -25 -56 -31 -85 -6 -28 -19 -67 -29 -87 -10 -20 -24 -63 -32 -95 -8 -32
-24 -81 -35 -109 -24 -58 -55 -151 -83 -250 -11 -38 -27 -80 -35 -93 -8 -12
-23 -55 -34 -95 -10 -39 -29 -99 -40 -131 -12 -33 -24 -81 -27 -107 -4 -36 -2
-50 8 -53 20 -7 859 -16 875 -9 19 7 17 33 -6 93 -11 28 -20 61 -20 73 0 12
-14 49 -30 82 -17 33 -30 69 -30 80 0 11 -13 47 -28 80 -16 33 -32 78 -36 100
-4 21 -18 59 -30 84 -13 26 -26 63 -29 85 -3 21 -17 59 -30 85 -14 25 -29 70
-36 99 -6 29 -19 69 -30 90 -10 20 -24 61 -30 90 -6 29 -17 63 -25 75 -8 12
-24 58 -36 102 -12 44 -26 85 -32 92 -15 19 -46 16 -56 -4z"/>
<path d="M12179 5171 c-23 -18 -23 -19 -24 -272 0 -140 1 -442 3 -671 l2 -417
23 -13 c16 -8 80 -11 227 -10 113 1 214 5 225 8 11 3 56 19 99 36 80 30 102
43 176 107 46 39 115 138 129 184 5 18 19 57 32 87 22 52 23 68 24 270 l0 215
-34 95 c-51 147 -106 220 -219 294 -43 28 -156 73 -242 96 -19 5 -117 10 -216
10 -163 0 -184 -2 -205 -19z"/>
</g>
</svg>
