<?xml version="1.0" standalone="no"?>
<!DOCTYPE svg PUBLIC "-//W3C//DTD SVG 20010904//EN"
 "http://www.w3.org/TR/2001/REC-SVG-20010904/DTD/svg10.dtd">
<svg version="1.0" xmlns="http://www.w3.org/2000/svg"
 width="1824.000000pt" height="1632.000000pt" viewBox="0 0 1824.000000 1632.000000"
 preserveAspectRatio="xMidYMid meet">
<rect width="1824.000000" height="1632.000000" fill="#1B3328"/>
<metadata>
Created by potrace 1.16, written by Peter Selinger 2001-2019
</metadata>
<g transform="translate(0.000000,1632.000000) scale(0.100000,-0.100000)"
fill="#EBE4CA" stroke="none">
<path d="M0 8160 l0 -8160 9120 0 9120 0 0 8160 0 8160 -9120 0 -9120 0 0
-8160z m9720 6996 c63 -8 174 -20 245 -26 72 -6 168 -19 215 -30 47 -11 135
-26 195 -34 61 -9 130 -22 153 -30 24 -9 83 -23 132 -31 49 -8 105 -22 124
-30 20 -9 70 -22 110 -30 41 -7 88 -21 105 -29 16 -9 65 -25 108 -35 91 -23
188 -54 258 -83 28 -11 82 -29 120 -40 39 -10 79 -25 91 -33 11 -7 44 -20 72
-29 29 -8 62 -22 75 -31 12 -8 40 -20 62 -26 36 -9 130 -50 195 -85 14 -8 41
-21 60 -29 90 -40 321 -159 326 -167 3 -5 29 -20 57 -34 29 -14 73 -37 98 -52
48 -28 65 -39 187 -119 41 -26 92 -59 116 -73 23 -14 56 -34 75 -45 18 -11 50
-33 71 -50 21 -16 63 -45 93 -63 30 -18 65 -44 77 -57 13 -14 28 -25 32 -25
10 0 103 -66 244 -175 46 -35 238 -197 274 -231 112 -107 431 -424 486 -485
65 -71 94 -104 231 -260 32 -36 76 -91 98 -123 22 -33 50 -70 62 -85 43 -49
155 -206 163 -228 5 -11 14 -24 19 -28 6 -3 27 -30 46 -58 19 -29 48 -70 64
-92 17 -22 38 -53 47 -70 9 -16 24 -39 34 -50 10 -11 26 -34 37 -52 10 -17 42
-70 71 -117 28 -47 52 -88 52 -91 0 -4 10 -21 23 -38 24 -34 44 -70 129 -239
32 -62 64 -124 72 -138 23 -40 86 -176 86 -185 0 -4 10 -22 23 -39 13 -17 31
-51 39 -76 24 -68 76 -190 98 -231 11 -20 20 -45 20 -55 0 -11 13 -46 28 -79
16 -33 34 -82 41 -109 6 -27 21 -66 31 -87 11 -21 20 -49 20 -61 1 -13 10 -48
21 -78 11 -30 29 -91 41 -135 11 -44 26 -92 35 -108 8 -16 21 -67 29 -115 9
-47 22 -102 30 -121 8 -20 26 -92 39 -161 14 -69 31 -154 39 -190 8 -36 17
-99 21 -140 3 -41 15 -106 25 -145 11 -38 26 -142 35 -230 9 -88 23 -223 33
-300 13 -111 16 -231 16 -585 0 -366 -3 -467 -17 -569 -10 -68 -24 -193 -32
-278 -9 -85 -24 -187 -34 -228 -11 -40 -25 -116 -31 -170 -6 -53 -18 -115 -26
-137 -7 -22 -21 -80 -29 -129 -9 -50 -24 -112 -35 -139 -10 -26 -26 -83 -34
-126 -8 -44 -24 -99 -35 -124 -11 -25 -21 -55 -21 -68 0 -13 -13 -58 -29 -100
-16 -42 -39 -106 -51 -142 -39 -119 -68 -195 -89 -235 -12 -21 -21 -48 -21
-59 0 -11 -14 -43 -30 -73 -17 -29 -30 -58 -30 -65 0 -7 -14 -40 -30 -73 -16
-33 -30 -65 -30 -71 0 -7 -28 -68 -62 -136 -35 -69 -68 -136 -74 -149 -32 -67
-57 -116 -65 -129 -5 -8 -22 -41 -38 -72 -16 -31 -38 -69 -50 -84 -12 -15 -21
-31 -21 -37 0 -6 -11 -25 -25 -43 -14 -18 -25 -37 -25 -42 0 -5 -14 -26 -30
-47 -17 -21 -39 -57 -49 -79 -10 -23 -25 -47 -34 -55 -10 -7 -17 -19 -17 -26
0 -7 -16 -32 -35 -56 -19 -24 -35 -49 -35 -56 0 -7 -42 -54 -93 -106 -74 -76
-106 -101 -161 -126 -56 -25 -82 -31 -137 -31 -38 0 -86 6 -106 14 -21 7 -56
19 -78 25 -22 6 -64 30 -94 54 -40 31 -63 61 -92 117 -34 66 -39 83 -39 145 0
53 6 83 25 123 13 29 29 71 35 93 6 21 22 56 35 76 14 20 25 40 25 44 0 5 14
28 30 51 17 22 30 47 30 54 0 7 10 25 23 41 12 15 28 39 35 53 7 14 22 39 35
56 45 64 112 180 152 264 14 30 32 61 39 70 7 8 16 28 20 45 8 30 50 126 90
205 13 25 27 56 31 70 6 24 29 75 94 211 17 36 31 72 31 80 0 8 14 43 30 77
17 35 30 69 30 75 0 7 13 39 29 73 16 33 34 84 40 113 6 28 19 68 30 89 10 20
22 57 26 82 4 25 16 68 27 95 11 28 26 84 34 125 8 41 23 101 35 134 11 32 24
93 29 135 6 42 16 99 24 126 20 70 34 164 41 275 4 52 13 123 21 157 7 34 19
144 25 245 15 233 5 807 -16 963 -8 61 -22 175 -30 255 -9 80 -22 170 -31 200
-8 30 -21 105 -30 165 -8 61 -24 140 -35 176 -11 36 -24 94 -30 130 -6 35 -24
107 -40 159 -17 52 -41 129 -54 170 -13 41 -26 91 -30 110 -3 19 -17 60 -30
90 -13 30 -32 82 -43 115 -11 33 -27 83 -37 110 -9 28 -29 78 -46 113 -16 34
-29 69 -29 76 0 8 -13 40 -30 71 -16 31 -30 64 -30 72 0 13 -30 82 -96 218
-13 28 -31 66 -40 85 -8 19 -31 62 -49 95 -19 33 -44 80 -56 105 -12 25 -32
58 -45 73 -13 16 -24 35 -24 42 0 7 -11 26 -24 42 -13 15 -31 44 -40 63 -9 19
-27 51 -41 70 -13 19 -34 49 -45 65 -11 17 -32 46 -45 65 -13 19 -36 56 -49
82 -14 26 -30 50 -36 53 -6 4 -22 23 -35 43 -13 21 -37 54 -52 74 -15 21 -48
65 -73 99 -25 34 -61 81 -80 104 -19 24 -62 78 -95 120 -65 83 -185 225 -225
266 -14 14 -44 45 -66 70 -77 82 -268 265 -354 338 -47 40 -94 80 -105 90 -11
10 -63 52 -115 94 -52 41 -107 86 -121 101 -15 14 -31 26 -36 26 -6 0 -44 26
-85 59 -41 32 -88 66 -104 75 -32 19 -81 52 -134 91 -19 14 -57 40 -85 57 -27
17 -72 46 -100 63 -129 83 -149 95 -160 95 -6 0 -22 11 -35 25 -12 13 -39 30
-59 36 -20 6 -45 19 -56 29 -11 10 -40 27 -65 39 -25 12 -56 28 -70 35 -69 39
-298 146 -310 146 -9 0 -31 8 -50 19 -19 10 -53 24 -75 31 -22 7 -60 23 -86
36 -25 12 -71 29 -103 37 -32 9 -65 22 -74 31 -10 8 -48 22 -86 31 -38 8 -74
20 -80 24 -6 5 -49 19 -95 31 -47 12 -96 27 -111 35 -14 7 -53 18 -87 24 -34
7 -92 22 -130 35 -37 13 -90 26 -118 30 -27 4 -90 18 -140 31 -49 13 -141 28
-204 34 -62 7 -148 18 -190 27 -42 8 -159 22 -261 30 -361 32 -1048 17 -1290
-27 -58 -10 -160 -25 -227 -34 -67 -8 -139 -21 -159 -30 -21 -8 -77 -22 -124
-30 -48 -7 -104 -21 -124 -29 -20 -8 -73 -22 -117 -31 -43 -8 -96 -23 -116
-34 -21 -10 -68 -24 -105 -30 -37 -6 -91 -23 -120 -36 -29 -14 -61 -25 -71
-25 -10 0 -40 -11 -67 -25 -27 -14 -73 -31 -102 -39 -29 -8 -75 -25 -102 -40
-27 -14 -56 -26 -65 -26 -9 0 -34 -12 -56 -25 -22 -14 -46 -25 -54 -25 -13 0
-246 -109 -321 -150 -19 -11 -80 -43 -135 -71 -55 -28 -129 -68 -165 -89 -36
-21 -86 -50 -112 -64 -26 -14 -49 -30 -52 -35 -3 -4 -38 -28 -78 -52 -40 -23
-84 -52 -98 -65 -14 -12 -37 -28 -51 -35 -45 -24 -133 -85 -148 -102 -7 -10
-18 -17 -23 -17 -10 0 -36 -19 -116 -86 -20 -17 -52 -39 -69 -48 -18 -9 -33
-20 -33 -24 0 -5 -24 -27 -52 -51 -126 -100 -421 -375 -548 -507 -129 -135
-205 -218 -215 -235 -5 -9 -32 -43 -60 -74 -86 -99 -110 -128 -150 -185 -34
-49 -78 -104 -119 -150 -7 -8 -21 -31 -31 -50 -10 -19 -30 -49 -44 -66 -25
-29 -108 -155 -141 -214 -9 -14 -26 -39 -38 -55 -12 -15 -22 -34 -22 -41 0 -7
-13 -28 -29 -46 -15 -18 -34 -50 -40 -70 -7 -21 -17 -40 -22 -44 -5 -3 -23
-33 -39 -67 -17 -34 -37 -74 -45 -89 -63 -117 -205 -407 -205 -419 0 -7 -11
-31 -24 -53 -13 -23 -27 -52 -31 -66 -6 -22 -32 -80 -74 -170 -54 -114 -125
-185 -222 -224 -106 -42 -141 -43 -249 -6 -59 20 -111 46 -137 67 -44 36 -99
108 -120 155 -19 44 -26 175 -14 262 6 44 22 103 35 130 13 28 29 69 36 91 7
22 23 58 36 81 13 22 24 48 24 56 0 8 11 31 24 51 13 19 27 46 31 58 13 47
180 391 209 433 12 16 32 51 46 77 64 122 84 155 96 162 8 4 14 14 14 21 0 6
21 44 47 83 95 140 183 269 213 308 16 22 41 56 54 75 26 36 160 214 218 288
46 58 218 261 248 293 14 14 72 77 130 139 58 63 114 124 126 135 151 148 263
254 280 266 25 17 129 107 188 163 23 21 83 71 135 110 51 39 112 86 135 103
22 18 57 44 76 58 19 14 51 37 70 51 19 14 44 33 55 43 11 10 34 26 50 35 17
9 57 37 90 61 33 25 72 50 88 56 15 6 27 15 27 20 0 8 53 42 153 97 23 13 49
29 57 36 16 13 167 99 268 151 31 17 69 37 82 46 14 10 36 20 50 24 14 4 36
16 49 26 13 11 42 24 65 30 22 6 53 20 68 30 15 11 48 26 73 34 26 7 54 20 63
28 10 8 40 22 69 30 28 9 69 25 90 36 21 11 61 27 88 36 28 10 77 26 110 37
33 11 83 29 110 40 28 11 79 29 115 39 36 10 76 25 90 33 14 7 52 19 85 26 33
7 85 23 115 35 30 13 78 26 105 30 28 5 77 18 110 30 33 13 89 26 125 30 36 4
101 18 145 30 44 13 121 28 170 35 50 6 113 18 140 26 28 8 140 24 250 34 110
11 236 24 280 30 136 17 158 17 610 15 339 -2 466 -6 555 -19z m-553 -1874 c6
-4 32 -47 58 -97 26 -49 65 -119 86 -155 21 -36 50 -87 64 -115 25 -49 45 -85
131 -237 22 -40 46 -88 52 -106 6 -18 20 -45 30 -60 10 -15 32 -56 49 -92 16
-36 49 -104 71 -152 23 -48 42 -93 42 -100 0 -7 11 -31 25 -53 13 -22 25 -47
25 -56 0 -8 12 -38 26 -65 14 -27 34 -76 44 -109 10 -33 28 -87 38 -120 11
-33 32 -113 47 -178 25 -108 27 -130 22 -270 -3 -122 -8 -162 -24 -202 -12
-27 -24 -69 -28 -92 -3 -22 -17 -56 -31 -74 -13 -18 -24 -38 -24 -44 0 -16
-93 -145 -132 -182 -18 -17 -51 -47 -73 -65 -44 -38 -137 -98 -150 -98 -5 0
-36 -13 -69 -29 -66 -32 -183 -51 -311 -51 -104 0 -233 24 -289 54 -27 14 -56
26 -65 26 -31 1 -157 92 -233 168 -106 107 -131 140 -186 247 -32 64 -45 104
-61 202 -12 66 -21 139 -21 161 0 66 51 385 66 417 8 16 21 55 29 87 9 32 24
72 34 90 10 18 24 50 31 70 6 21 35 84 64 140 29 57 58 120 65 140 7 20 18 42
26 48 8 6 21 33 30 60 9 27 22 54 30 60 8 6 19 28 26 48 6 20 20 48 29 62 10
14 42 70 70 125 29 55 58 107 65 115 7 8 22 33 33 55 37 74 71 137 81 149 5 6
32 56 61 111 56 107 104 175 123 175 7 0 17 -4 24 -8z m3098 -2292 c116 -19
322 -68 351 -83 18 -9 52 -21 75 -26 40 -9 178 -71 239 -107 14 -8 36 -19 50
-24 36 -15 130 -81 215 -151 85 -71 245 -273 245 -310 0 -9 10 -29 22 -44 12
-15 32 -57 46 -94 13 -36 30 -82 37 -101 7 -19 18 -86 25 -147 13 -105 12
-114 -5 -133 -10 -11 -27 -20 -38 -20 -32 0 -91 75 -159 206 -10 18 -28 43
-40 57 -13 13 -39 43 -58 67 -30 36 -119 118 -220 200 -28 23 -52 36 -196 109
-56 28 -110 51 -120 51 -11 0 -46 12 -79 25 -71 30 -194 44 -375 45 -141 0
-301 -20 -346 -42 -16 -9 -55 -23 -86 -32 -31 -9 -60 -21 -63 -26 -4 -6 -34
-25 -67 -43 -98 -52 -111 -60 -143 -92 -17 -16 -62 -60 -100 -97 -131 -124
-157 -161 -267 -381 -27 -52 -48 -101 -48 -108 0 -8 -12 -39 -26 -69 -14 -30
-32 -89 -40 -130 -8 -41 -23 -97 -33 -125 -11 -29 -22 -94 -26 -155 -6 -84 -4
-108 6 -117 8 -6 88 -13 189 -16 96 -3 204 -13 240 -21 36 -8 97 -17 135 -21
39 -4 111 -17 160 -30 50 -13 117 -29 150 -35 84 -17 239 -67 309 -101 32 -16
64 -29 71 -29 13 0 167 -77 241 -121 204 -121 444 -387 544 -605 18 -38 47
-126 66 -196 31 -116 34 -141 34 -266 0 -95 -5 -156 -16 -197 -9 -33 -22 -91
-30 -130 -7 -38 -24 -92 -36 -119 -55 -117 -111 -219 -143 -263 -20 -27 -43
-59 -53 -72 -22 -30 -155 -175 -165 -179 -4 -2 -41 -33 -83 -68 -41 -35 -79
-64 -84 -64 -5 0 -24 -13 -42 -28 -31 -26 -73 -52 -173 -108 -35 -20 -61 -33
-150 -74 -11 -6 -27 -14 -35 -20 -8 -5 -33 -17 -55 -27 -32 -15 -41 -24 -43
-48 -1 -18 6 -42 18 -60 36 -53 69 -100 81 -114 7 -7 47 -61 90 -120 42 -58
88 -119 101 -136 13 -16 28 -40 35 -53 7 -12 32 -49 57 -82 25 -32 52 -74 62
-92 9 -18 26 -45 38 -60 12 -14 32 -45 46 -68 47 -79 109 -175 124 -192 8 -9
23 -32 32 -50 9 -18 29 -47 43 -64 14 -18 40 -55 56 -83 17 -29 41 -67 55 -86
14 -18 34 -48 45 -66 51 -83 63 -100 82 -121 11 -13 26 -34 33 -48 7 -14 19
-32 27 -40 14 -15 51 -64 98 -130 14 -19 41 -55 60 -80 19 -25 46 -61 59 -80
46 -69 151 -197 251 -308 189 -209 403 -425 516 -521 41 -35 86 -75 101 -90
31 -30 69 -61 115 -93 79 -57 158 -116 195 -145 22 -18 45 -33 51 -33 5 0 25
-11 43 -25 18 -14 37 -25 42 -25 6 0 33 -15 60 -34 28 -18 63 -36 78 -40 15
-4 39 -15 53 -25 14 -10 42 -24 61 -31 19 -7 47 -22 62 -32 15 -10 51 -27 80
-38 29 -10 71 -28 93 -39 21 -12 48 -21 60 -21 11 0 34 -8 50 -18 17 -10 51
-26 77 -35 25 -10 49 -25 52 -32 9 -24 -4 -43 -36 -54 -74 -26 -597 1 -747 38
-42 11 -107 24 -146 31 -38 6 -89 20 -112 30 -23 10 -68 24 -100 30 -32 7 -71
20 -88 30 -16 10 -41 21 -55 25 -47 13 -296 133 -338 164 -15 10 -38 22 -52
26 -14 4 -34 15 -45 25 -11 10 -38 27 -61 38 -22 11 -46 27 -53 36 -7 8 -29
20 -49 27 -20 6 -47 21 -59 33 -11 11 -44 37 -73 56 -97 66 -325 267 -426 376
-106 114 -277 314 -329 384 -16 22 -39 52 -50 65 -11 13 -38 47 -60 76 -22 28
-52 66 -66 83 -14 17 -42 56 -62 86 -20 30 -45 66 -54 79 -17 23 -37 53 -78
120 -11 18 -30 47 -42 65 -13 17 -31 50 -42 72 -11 23 -24 45 -30 49 -6 3 -23
27 -37 53 -52 96 -75 135 -94 160 -11 13 -20 30 -20 37 0 7 -13 29 -30 50 -16
20 -32 46 -36 58 -4 12 -17 35 -30 50 -13 16 -24 34 -24 41 0 7 -11 28 -26 47
-14 19 -34 53 -44 77 -10 23 -23 42 -28 42 -5 0 -16 14 -23 32 -15 36 -56 101
-144 228 -13 19 -33 51 -44 70 -11 19 -76 91 -144 160 -153 155 -176 176 -207
185 -14 4 -43 17 -65 30 -39 22 -158 45 -233 45 -21 0 -43 -5 -50 -12 -9 -9
-12 -123 -12 -453 1 -242 5 -528 10 -635 5 -107 13 -454 16 -771 l7 -576 -37
-41 c-29 -31 -48 -43 -87 -51 -65 -14 -255 -14 -377 0 -53 7 -116 20 -139 30
-23 10 -70 23 -105 30 -35 7 -83 23 -108 35 -25 13 -51 24 -59 24 -19 0 -319
148 -327 162 -3 5 -25 18 -48 29 -83 38 -277 187 -394 300 -74 72 -162 170
-227 253 -33 42 -73 93 -89 112 -17 20 -62 86 -102 147 -40 62 -80 121 -89
132 -22 27 -60 90 -90 150 -25 48 -53 93 -93 145 -10 14 -24 42 -31 62 -7 20
-19 42 -28 49 -8 7 -26 36 -39 64 -13 27 -31 61 -39 75 -8 14 -21 39 -29 55
-14 31 -73 144 -93 180 -28 51 -93 191 -93 201 0 6 -7 17 -14 24 -8 6 -23 35
-32 63 -9 29 -25 63 -34 77 -9 14 -23 43 -30 65 -7 22 -23 58 -36 81 -13 22
-24 48 -24 56 0 8 -12 37 -26 64 -15 27 -33 72 -41 99 -8 28 -21 57 -28 65 -7
8 -22 40 -33 70 -64 175 -81 218 -95 245 -24 43 -67 152 -82 207 -8 26 -25 67
-39 91 -14 24 -26 50 -26 57 0 7 -13 43 -29 79 -47 110 -72 173 -97 245 -13
37 -27 73 -33 80 -5 6 -16 35 -25 65 -9 30 -22 64 -29 75 -8 12 -22 44 -31 73
-9 28 -24 57 -32 64 -19 16 -110 5 -210 -26 -43 -14 -98 -25 -122 -25 -56 0
-88 -31 -96 -91 -3 -24 -8 -354 -11 -734 -8 -992 -19 -1352 -49 -1630 -14
-126 -28 -257 -32 -289 -3 -33 -17 -89 -29 -125 -12 -36 -26 -88 -30 -114 -3
-26 -17 -71 -31 -100 -13 -29 -24 -59 -24 -67 0 -15 -84 -186 -128 -260 -31
-53 -189 -213 -252 -255 -72 -48 -168 -92 -275 -125 -97 -30 -107 -31 -290
-32 -170 0 -196 2 -250 21 -33 12 -80 28 -105 35 -55 16 -155 70 -193 105 -89
81 -159 163 -210 248 -28 46 -37 72 -37 106 0 27 6 49 15 57 22 18 73 5 135
-35 30 -19 60 -35 67 -35 7 0 48 -12 90 -27 73 -26 89 -28 233 -28 138 1 159
3 195 22 22 11 59 26 82 33 27 8 68 37 121 86 44 41 91 91 103 112 12 20 28
42 34 47 13 10 105 205 105 220 0 5 11 36 24 69 13 34 27 90 31 126 4 36 11
83 15 105 29 134 46 392 66 960 11 337 13 585 8 928 -7 451 -8 468 -27 478
-14 8 -100 6 -301 -7 -154 -10 -378 -18 -496 -18 -242 -1 -571 25 -695 54 -44
10 -116 24 -160 31 -44 7 -107 22 -140 35 -33 12 -83 25 -110 29 -28 4 -66 16
-86 26 -20 10 -58 23 -85 30 -27 7 -69 22 -94 34 -25 13 -65 28 -90 35 -25 7
-56 20 -70 30 -14 9 -36 21 -50 25 -14 4 -48 20 -76 36 -28 16 -58 29 -66 29
-9 0 -28 10 -43 22 -15 11 -71 43 -124 71 -53 27 -105 58 -117 68 -11 10 -25
19 -32 19 -6 0 -26 13 -44 29 -18 15 -43 33 -54 39 -21 11 -120 89 -194 151
-19 17 -50 43 -69 58 -19 15 -45 40 -60 56 -14 15 -31 27 -37 27 -33 0 -24
-733 11 -945 9 -49 22 -155 30 -235 7 -80 21 -164 29 -187 8 -24 20 -89 26
-145 12 -110 12 -110 40 -208 10 -36 24 -96 30 -135 7 -38 19 -82 27 -97 7
-15 20 -65 29 -110 9 -46 24 -103 35 -128 24 -58 59 -234 59 -299 0 -61 -36
-165 -75 -213 -46 -58 -116 -107 -196 -140 -65 -26 -83 -29 -149 -25 -138 8
-247 84 -319 220 -23 42 -41 83 -41 90 0 6 -13 38 -29 70 -16 32 -32 79 -36
105 -4 26 -15 62 -25 82 -10 20 -23 65 -30 100 -7 36 -20 92 -31 125 -10 33
-25 106 -33 163 -9 56 -24 133 -35 170 -11 37 -25 112 -31 167 -6 55 -19 145
-30 200 -22 111 -38 383 -47 785 -6 309 17 779 46 922 11 51 24 143 31 203 6
61 22 153 35 205 13 52 27 126 30 165 4 38 16 97 26 130 10 34 25 96 34 139
16 89 51 187 68 198 27 17 54 8 70 -24 10 -18 37 -58 62 -88 25 -30 52 -67 60
-83 9 -15 50 -73 93 -128 42 -56 82 -109 87 -117 6 -9 36 -47 68 -84 31 -38
57 -72 57 -76 0 -14 212 -227 315 -317 89 -78 215 -173 325 -245 20 -14 50
-34 66 -44 26 -17 88 -56 149 -94 11 -7 43 -24 72 -38 28 -13 56 -31 63 -39 6
-8 28 -19 48 -26 20 -6 55 -21 77 -34 22 -12 58 -28 80 -35 22 -7 60 -24 84
-37 24 -12 53 -23 65 -23 12 0 41 -11 66 -24 25 -13 61 -27 80 -30 19 -4 74
-21 122 -37 47 -16 99 -29 115 -29 16 0 67 -11 114 -25 51 -16 135 -30 214
-37 173 -16 752 -16 940 0 170 15 292 42 316 71 21 25 27 83 39 356 12 269 12
685 0 820 -13 149 -46 340 -64 367 -9 13 -22 45 -30 70 -7 25 -26 63 -42 84
-43 59 -113 123 -142 131 -15 3 -47 17 -71 30 -38 20 -58 23 -150 23 -71 -1
-119 -6 -146 -16 -22 -9 -66 -23 -97 -33 -31 -9 -67 -26 -81 -39 -13 -12 -28
-22 -33 -22 -18 0 -119 -105 -160 -166 -22 -34 -55 -104 -72 -157 -41 -124
-44 -219 -7 -322 13 -38 25 -77 25 -86 0 -8 13 -33 30 -55 16 -21 30 -44 30
-51 0 -15 110 -112 158 -139 27 -15 37 -27 37 -45 0 -19 -8 -27 -35 -36 -49
-17 -185 -16 -269 2 -70 14 -143 52 -211 107 -52 42 -120 112 -120 122 0 5
-12 24 -26 43 -14 18 -33 55 -41 81 -9 26 -22 56 -29 67 -25 39 -37 155 -32
309 5 132 9 160 33 221 65 171 172 335 285 441 67 62 176 146 216 167 17 9 36
22 43 31 7 8 29 20 49 27 20 7 48 20 61 30 13 11 42 24 65 30 22 5 53 19 68
30 15 11 73 28 128 39 55 12 112 25 127 31 15 6 91 15 169 20 164 12 415 -1
480 -25 23 -8 79 -21 124 -30 45 -8 93 -22 106 -30 12 -9 45 -24 72 -34 56
-22 221 -118 279 -163 104 -81 179 -144 242 -203 71 -67 226 -247 246 -286 8
-16 19 -30 24 -30 4 0 14 -12 21 -27 8 -16 25 -44 39 -63 15 -19 34 -51 44
-70 10 -19 33 -62 52 -95 19 -33 46 -82 60 -110 14 -27 32 -61 40 -75 27 -50
85 -177 85 -188 0 -7 11 -33 24 -59 44 -86 94 -197 101 -227 3 -17 14 -41 24
-55 10 -14 24 -44 31 -66 7 -22 23 -58 35 -80 13 -22 26 -54 30 -72 7 -37 50
-83 77 -83 10 0 32 7 48 15 16 8 62 22 102 29 40 8 96 23 123 34 28 11 76 23
108 26 32 4 89 18 126 31 37 12 92 26 122 30 30 4 77 16 104 25 51 19 122 34
210 45 28 3 82 15 120 25 39 10 122 24 185 30 63 6 146 18 183 25 82 17 178
27 309 34 32 2 44 38 74 221 8 52 23 115 34 140 10 25 23 73 30 107 6 35 22
87 35 115 14 29 25 60 25 68 0 8 16 46 35 84 19 39 35 75 35 82 0 15 74 161
93 183 8 9 18 26 21 38 4 12 19 37 34 56 27 35 53 75 82 128 8 15 54 69 102
121 49 51 94 100 100 109 7 8 42 40 78 71 96 81 211 161 295 204 28 14 66 34
85 44 65 34 175 78 215 85 21 4 55 15 75 25 19 10 76 25 125 34 50 9 106 22
125 28 19 6 62 14 95 18 85 10 510 10 570 0z m-8689 -5946 c92 -51 197 -176
260 -309 8 -16 24 -44 37 -62 12 -17 35 -53 50 -80 53 -90 124 -193 227 -329
25 -32 54 -71 65 -86 95 -127 279 -344 364 -429 31 -31 104 -105 162 -165 199
-204 413 -399 554 -504 33 -25 62 -49 64 -53 1 -4 19 -19 40 -32 20 -14 61
-43 91 -64 30 -22 68 -48 84 -57 16 -9 57 -37 90 -63 34 -26 108 -78 166 -115
58 -38 119 -78 135 -89 30 -21 193 -113 335 -189 41 -22 102 -55 136 -74 33
-19 67 -34 76 -34 8 0 29 -11 48 -25 19 -14 42 -25 51 -25 9 0 41 -13 71 -28
30 -16 67 -32 84 -36 16 -4 56 -21 89 -37 33 -16 65 -29 72 -29 7 0 42 -13 76
-30 35 -17 73 -30 83 -30 10 0 44 -12 74 -26 30 -14 84 -32 120 -40 36 -9 70
-20 76 -25 6 -4 48 -18 95 -29 46 -11 107 -28 134 -39 28 -10 82 -24 121 -30
39 -6 90 -17 114 -26 23 -8 90 -22 149 -30 58 -9 138 -25 176 -35 41 -11 139
-24 235 -30 91 -6 201 -16 245 -21 193 -23 381 -31 589 -25 120 4 250 11 290
16 39 5 165 17 280 25 142 11 240 23 305 39 53 13 123 27 156 31 33 3 101 17
150 30 50 13 117 27 150 30 33 4 85 18 115 30 30 13 79 29 108 34 29 6 66 18
81 26 16 8 60 21 99 29 38 8 88 24 110 35 22 11 61 25 87 31 26 6 68 20 93 31
25 12 68 28 96 36 28 8 60 22 71 29 11 8 38 19 60 25 22 5 90 34 150 63 207
100 240 117 290 152 17 12 41 25 55 29 25 7 110 56 181 102 19 13 40 23 46 23
5 0 26 12 46 28 19 15 50 36 68 47 18 11 53 34 79 50 26 17 61 39 80 50 18 11
44 29 59 41 14 11 40 26 58 33 17 7 39 21 48 32 10 10 34 24 54 30 20 6 48 20
62 30 14 10 46 23 70 28 59 14 214 14 264 0 68 -19 163 -100 207 -178 30 -52
33 -64 36 -165 5 -118 -6 -171 -42 -219 -30 -40 -110 -117 -157 -152 -22 -16
-54 -41 -71 -55 -17 -14 -46 -34 -64 -45 -29 -17 -101 -65 -198 -131 -88 -60
-277 -170 -391 -229 -27 -14 -81 -43 -120 -64 -122 -67 -252 -131 -267 -131
-8 0 -29 -11 -47 -24 -19 -14 -47 -28 -63 -31 -16 -4 -55 -20 -85 -36 -30 -16
-62 -29 -71 -29 -8 0 -34 -11 -56 -24 -23 -13 -59 -29 -81 -36 -22 -7 -53 -20
-70 -30 -16 -10 -57 -23 -90 -30 -33 -7 -73 -20 -90 -30 -16 -10 -55 -23 -85
-30 -30 -7 -71 -21 -90 -30 -19 -10 -62 -23 -95 -30 -33 -7 -78 -22 -100 -32
-22 -10 -84 -27 -137 -38 -53 -10 -106 -24 -117 -30 -12 -6 -67 -19 -123 -30
-57 -11 -127 -26 -155 -34 -29 -8 -99 -20 -155 -26 -57 -7 -140 -20 -184 -31
-45 -10 -171 -26 -280 -34 -110 -8 -242 -19 -294 -25 -143 -14 -563 -12 -745
5 -88 8 -243 19 -345 25 -102 6 -214 18 -250 26 -36 8 -130 23 -210 33 -80 11
-164 27 -187 35 -24 8 -80 20 -125 26 -46 6 -121 22 -168 35 -47 13 -111 29
-142 34 -31 6 -74 19 -95 30 -21 10 -61 22 -88 26 -28 4 -75 18 -106 30 -30
12 -73 25 -95 29 -21 4 -69 21 -106 37 -36 16 -75 29 -85 29 -10 0 -37 9 -58
20 -22 11 -67 29 -101 39 -33 11 -76 29 -95 40 -19 12 -41 21 -50 21 -15 0
-40 11 -204 91 -44 21 -87 39 -96 39 -8 0 -19 4 -25 10 -5 5 -39 25 -74 43
-36 18 -78 40 -95 49 -70 36 -90 47 -256 141 -31 18 -104 58 -163 90 -58 32
-108 62 -111 67 -3 5 -25 19 -48 30 -23 11 -58 31 -77 45 -19 13 -50 35 -68
47 -19 13 -61 45 -95 71 -34 26 -75 55 -91 65 -15 9 -46 31 -67 47 -21 17 -57
44 -80 60 -22 17 -51 39 -63 50 -13 12 -52 42 -87 69 -35 26 -90 71 -122 99
-32 29 -64 55 -72 59 -7 4 -28 22 -47 40 -19 18 -65 60 -103 93 -150 132 -372
353 -481 480 -53 61 -115 133 -140 161 -24 28 -54 65 -66 82 -55 75 -127 169
-173 225 -28 34 -63 80 -78 102 -15 22 -41 58 -58 80 -16 22 -37 51 -47 65 -9
14 -43 62 -74 107 -32 45 -58 85 -58 88 0 4 -13 23 -30 42 -16 18 -30 40 -30
48 0 7 -11 26 -24 42 -13 15 -35 51 -50 78 -14 28 -30 57 -35 65 -74 127 -102
255 -81 378 8 49 20 82 36 101 13 16 24 33 24 38 0 20 89 93 145 119 76 36
122 44 213 38 61 -3 84 -10 138 -40z"/>
<path d="M6865 8838 c-3 -7 -4 -114 -3 -238 l3 -225 26 -9 c20 -7 43 -4 85 10
54 17 59 22 62 51 2 21 -9 59 -33 109 -19 43 -38 95 -42 116 -3 22 -16 55 -29
73 -13 19 -28 52 -34 74 -11 43 -27 60 -35 39z"/>
<path d="M10982 8573 c-44 -9 -50 -42 -72 -400 -11 -186 -26 -414 -34 -508 -8
-93 -20 -332 -26 -530 -6 -198 -16 -389 -22 -424 -10 -61 -10 -65 11 -83 38
-30 98 -40 210 -36 128 6 339 41 401 68 25 11 64 24 87 30 23 6 45 15 49 21 4
6 30 22 58 35 74 35 129 77 213 162 72 72 132 155 159 217 7 17 22 44 34 60
11 17 20 39 20 50 0 11 12 52 25 90 50 138 54 463 7 568 -11 25 -23 60 -27 78
-4 19 -20 55 -36 80 -16 25 -29 51 -29 57 0 15 -91 123 -150 179 -52 49 -98
80 -169 113 -23 11 -54 29 -67 39 -13 10 -41 22 -61 26 -20 4 -55 16 -76 27
-26 13 -107 30 -236 49 -108 16 -207 30 -221 33 -14 2 -35 1 -48 -1z"/>
<path d="M9759 8486 c-2 -2 -74 -11 -159 -20 -85 -9 -176 -24 -202 -32 -26 -9
-89 -21 -140 -28 -51 -8 -113 -22 -138 -33 -25 -12 -76 -26 -113 -32 -38 -7
-89 -20 -115 -30 -26 -10 -67 -22 -92 -26 -25 -4 -79 -20 -120 -35 -41 -16
-102 -35 -135 -43 -75 -19 -177 -55 -188 -66 -6 -6 -1 -27 12 -53 11 -25 21
-51 21 -59 0 -8 14 -43 30 -77 17 -35 30 -70 30 -76 0 -7 14 -38 30 -69 17
-31 30 -65 30 -75 0 -11 13 -43 29 -73 15 -30 34 -72 41 -94 7 -22 19 -49 27
-61 7 -11 20 -45 29 -75 9 -30 24 -65 34 -79 9 -14 23 -43 30 -65 7 -22 24
-60 37 -84 12 -24 23 -50 23 -58 0 -8 13 -40 30 -71 36 -71 90 -188 90 -198 0
-4 16 -42 36 -83 20 -42 48 -103 64 -136 15 -33 52 -112 83 -175 30 -63 76
-160 102 -215 27 -55 54 -107 60 -115 7 -8 16 -26 20 -40 4 -14 18 -38 30 -55
13 -16 32 -50 44 -75 12 -25 37 -70 56 -100 19 -30 44 -74 55 -98 11 -24 31
-58 45 -76 14 -18 25 -37 25 -42 0 -5 14 -27 30 -48 17 -22 30 -44 30 -49 0
-9 39 -77 104 -179 16 -27 35 -48 42 -48 10 0 13 113 13 558 1 759 19 1358 51
1667 5 50 14 173 20 275 13 238 27 381 47 502 13 76 14 103 5 123 -9 19 -19
25 -45 25 -19 0 -36 -2 -38 -4z"/>
</g>
</svg>
